<svg width="95" height="40" viewBox="0 0 95 40" fill="none" xmlns="http://www.w3.org/2000/svg">
<g clip-path="url(#clip0_3711_57)">
<path d="M52.3738 33.1257C51.5145 33.1257 50.3974 33.1257 47.9484 33.1257H40.3437V21.9549H49.3233C50.8271 21.9119 52.3738 22.0838 53.8346 22.3845H53.9635C56.5414 22.9431 58.3888 25.2632 58.3888 27.927C58.3459 31.1923 56.3695 32.9108 52.3738 33.1257ZM40.3437 6.65951H49.6241C51.9871 6.65951 54.2213 6.65951 55.5961 7.69065C56.5414 8.42105 57.0999 9.5811 57.014 10.7411C57.0569 12.0301 56.5414 13.2331 55.5532 14.0924C54.0494 15.3383 51.5575 15.3383 48.9366 15.3383H40.3437V6.65951ZM76.9495 0H70.5478L62.1697 19.6778C61.6971 19.2481 61.1815 18.8614 60.6659 18.5177C63.072 16.7132 64.4039 13.8776 64.3179 10.87C64.3609 7.81955 63.072 4.89796 60.7948 2.87863C57.4866 0.0429645 53.276 0.0429646 50.4834 0.0429646H33.2116V21.6971L23.4157 0.0429646H17.0569L0 39.957H8.16327L20.2793 10.913L33.0827 39.957H45.9721C51.9441 39.957 53.319 39.957 55.2524 39.6992C60.1074 38.9259 62.6853 36.4339 64.0172 33.942C64.1461 33.6412 64.3179 33.3405 64.4468 33.0397L65.478 30.6767L73.6842 10.956L86.5306 40H94.8657L76.9495 0Z" fill="#091011"/>
<path d="M28.3137 30.29L18.5608 24.7046V35.9183L28.3137 30.29Z" fill="#091011"/>
<path d="M81.8045 30.29L72.1804 24.7046V35.8754L81.8045 30.29Z" fill="#091011"/>
<path d="M85.7142 4.68323C84.8549 5.54252 83.4801 5.54252 82.6208 4.68323C82.1911 4.29655 81.9763 3.73801 81.9763 3.1365C81.9763 1.9335 82.9645 0.945312 84.1675 0.945312C85.3705 0.945312 86.3587 1.9335 86.3587 3.1365C86.3157 3.73801 86.1009 4.29655 85.7142 4.68323ZM82.8356 1.84757C82.1052 2.57797 82.1052 3.78097 82.8356 4.51137C83.1793 4.85509 83.6519 5.06991 84.1675 5.06991C85.1987 5.06991 86.0579 4.25358 86.1009 3.22243C86.1009 2.19128 85.2846 1.33199 84.2534 1.28903C83.6949 1.24606 83.2223 1.46089 82.8356 1.84757ZM84.1245 1.9335C84.3394 1.9335 84.5542 1.9335 84.769 2.01943C85.0268 2.10536 85.1557 2.36314 85.1557 2.62093C85.1557 2.79279 85.0698 3.00761 84.9409 3.09354C84.8549 3.1365 84.726 3.17947 84.5972 3.22243C84.769 3.22243 84.8979 3.30836 85.0268 3.43726C85.1127 3.52319 85.1557 3.69504 85.1557 3.82394V4.16765C85.1557 4.21062 85.1557 4.25358 85.1557 4.29655H84.812V4.03876C84.8549 3.82394 84.769 3.60912 84.5972 3.48022C84.4683 3.43726 84.2964 3.39429 84.1245 3.39429H83.7808V4.33951H83.3512V1.9335H84.1245ZM84.5542 2.32018C84.3823 2.23425 84.2105 2.23425 84.0386 2.23425H83.6949V3.09354H84.0816C84.2105 3.09354 84.3394 3.09354 84.4683 3.09354C84.6401 3.05058 84.726 2.87872 84.726 2.70686C84.726 2.57797 84.6831 2.44907 84.5542 2.36314" fill="#091011"/>
</g>
<defs>
<clipPath id="clip0_3711_57">
<rect width="94.8228" height="40" fill="white"/>
</clipPath>
</defs>
</svg>
