<svg width="231" height="40" viewBox="0 0 231 40" fill="none" xmlns="http://www.w3.org/2000/svg">
<path d="M211.913 31.877C211.759 32.9537 211.682 34.1073 211.452 35.1839C211.259 36.2991 210.529 37.1066 209.452 37.2988C208.337 37.4911 207.107 37.4526 205.915 37.4911C205.915 34.1842 205.915 31.108 205.915 27.878C206.414 27.878 206.837 27.878 207.337 27.878C208.529 27.878 208.914 28.1856 209.068 29.3007C209.221 30.3774 209.837 30.685 210.836 30.3005C210.836 28.3394 210.836 26.3014 210.836 24.3019C210.836 23.7636 210.721 23.3021 210.106 23.2252C209.491 23.1483 209.106 23.3406 208.991 24.0712C208.76 25.417 208.299 25.6862 206.991 25.6862C206.684 25.6862 206.337 25.6862 205.991 25.6862C205.991 22.8407 205.991 20.0721 205.991 17.2267C206.722 17.2267 207.453 17.2267 208.145 17.2267C208.452 17.2267 208.798 17.2267 209.068 17.2651C210.298 17.4574 210.836 17.9957 211.029 19.1877C211.144 19.8799 211.182 20.6105 211.221 21.3026C211.336 22.0332 211.875 22.0717 212.451 22.0717C213.144 22.0717 212.99 21.5718 212.99 21.2257C212.99 19.4185 212.99 17.6497 212.99 15.8039C212.99 15.4194 212.797 15.0349 212.759 14.8042C206.837 14.8042 201.262 14.8042 195.648 14.8042C195.494 15.9193 195.648 16.3423 196.186 16.4961C197.378 16.8806 197.532 17.1498 197.07 18.3033C196.494 19.9183 195.878 21.5333 195.263 23.1868C194.802 24.3019 194.417 25.4939 193.917 26.8398C193.225 25.0325 192.572 23.3791 191.956 21.7641C191.572 20.7643 191.187 19.803 190.88 18.7648C190.534 17.6496 190.88 16.996 191.956 16.5345C192.11 16.4192 192.302 16.2269 192.341 16.0347C192.495 15.2656 192.149 14.8426 191.303 14.8426C188.342 14.8426 185.381 14.8426 182.459 14.8426C182.266 14.8426 182.074 14.8811 181.882 14.8811C181.728 16.0731 181.766 16.2654 182.766 16.6114C183.266 16.7652 183.458 17.1113 183.42 17.5343C183.381 17.9188 183.304 18.2649 183.266 18.611C182.728 22.1101 182.151 25.6093 181.574 29.1085C181.382 30.1851 181.19 31.3387 181.036 32.4154C180.305 29.4545 179.69 26.4937 179.229 23.5713C178.767 20.9181 178.459 18.2264 178.037 15.5348C177.998 15.3041 177.652 14.8811 177.46 14.8426C176.537 14.7273 175.652 14.8042 174.845 14.8042C173.999 20.7643 173.153 26.5706 172.384 32.3769C172.192 32.1847 172.076 31.9924 172.076 31.8001C171.423 28.9162 170.807 25.9938 170.154 23.1099C169.808 21.4949 169.462 19.8799 169.154 18.188C169.039 17.4958 169.269 16.8421 170 16.6499C170.692 16.4576 170.731 16.0731 170.654 15.5348C170.538 14.958 170.154 14.8042 169.615 14.8426C167.693 14.8426 165.732 14.8426 163.809 14.8426C163.578 14.8426 163.348 14.8811 163.117 14.8811C162.963 16.0731 163.002 16.1116 163.963 16.6114C164.271 16.7652 164.501 17.1498 164.54 17.4574C165.04 19.2646 165.424 21.0335 165.886 22.8792C167.116 28.1472 168.308 33.3767 169.539 38.6062C169.654 38.9523 169.923 39.5291 170.192 39.606C171.269 39.7213 172.422 39.6444 173.345 39.6444C174.076 34.9532 174.768 30.3774 175.46 25.8016C175.652 26.0323 175.691 26.3014 175.768 26.5706C176.498 30.5697 177.229 34.5303 177.998 38.5293C178.113 38.9138 178.459 39.5291 178.729 39.5291C179.844 39.6444 181.036 39.5675 182.036 39.5675C182.958 32.0308 184.612 24.7249 185.842 17.3805C185.996 17.4958 186.035 17.5343 186.073 17.6112C187.457 20.995 188.88 24.4173 190.264 27.8011C190.495 28.3779 190.841 28.9931 190.918 29.5699C190.957 31.877 190.918 34.2611 190.918 36.6067C190.918 37.2604 190.572 37.6833 189.918 37.7987C189.226 37.9141 189.226 38.337 189.265 38.8369C189.38 39.3753 189.726 39.5675 190.264 39.5675C191.456 39.5291 192.61 39.5675 193.764 39.5675C194.686 39.5675 195.648 39.5675 196.647 39.5675C196.686 38.8369 196.84 38.1063 195.994 37.8756C195.109 37.6833 194.994 37.1066 194.994 36.4144C194.994 34.6456 194.956 32.9153 194.994 31.1464C195.032 30.4158 195.148 29.6083 195.379 28.9162C196.109 26.8013 196.955 24.6864 197.724 22.5716C198.416 20.8028 199.07 19.0339 199.801 17.3036C200.031 16.7268 200.493 16.2269 201.223 16.4192C201.915 16.573 201.723 17.1882 201.723 17.6881C201.723 23.802 201.723 29.8775 201.723 36.0299C201.723 36.2606 201.762 36.5682 201.685 36.722C201.454 37.1066 201.185 37.6064 200.839 37.7603C200.147 37.9525 199.993 38.337 200.108 38.9523C200.224 39.606 200.685 39.6444 201.223 39.6444C205.069 39.6444 208.914 39.6444 212.682 39.6444C212.99 39.6444 213.22 39.6444 213.567 39.6444C213.567 37.3757 213.528 35.2224 213.567 33.0691C213.643 31.8386 213.105 31.6079 211.913 31.877ZM42.2226 14.958C40.3385 14.958 38.4928 14.958 36.647 14.958C36.4163 14.958 36.1856 14.9964 36.1472 14.9964C35.6088 20.6874 33.8785 26.0707 32.8018 31.5694C32.648 31.3772 32.6095 31.1849 32.5711 30.9926C31.879 27.4166 31.1868 23.8405 30.4947 20.2644C30.2639 18.8801 29.9563 17.4958 29.841 16.0731C29.8025 15.0349 29.8025 14.958 28.7259 14.8811C27.0339 14.8811 25.3805 14.8811 23.6886 14.8811C23.2272 14.8811 22.8042 14.8811 22.3428 14.8811C22.2274 15.6117 22.1889 16.3423 22.9195 16.4961C23.9193 16.6499 23.9962 17.2267 23.9962 18.0342C23.9962 23.9943 23.9962 29.9544 23.9962 35.8761C23.9962 36.2222 23.9962 36.5682 23.8809 36.9143C23.7655 37.568 23.4963 38.0294 22.8042 38.1063C22.0736 38.1448 21.8044 37.6449 21.6122 37.0297C20.5355 33.0306 19.3819 29.07 18.2668 25.071C16.6518 19.2647 15.0753 13.4583 13.3833 7.65202C13.268 7.30595 12.8835 6.76762 12.6143 6.72917C11.3838 6.61381 10.1533 6.69071 8.76906 6.69071C9.42275 7.72893 9.30739 8.61333 9.07668 9.57464C7.8462 14.4581 6.65418 19.3031 5.50061 24.1866C4.57775 27.9164 3.69334 31.6463 2.73203 35.4147C2.42441 36.6451 1.88608 37.6449 0.617152 37.9141C-0.0749911 38.0679 -0.0365387 38.5678 0.040366 38.9907C0.0788184 39.5291 0.424891 39.7213 0.963224 39.7213C2.42442 39.7213 3.92406 39.7213 5.4237 39.7213C6.00049 39.7213 6.53882 39.7213 7.15406 39.7213C7.26942 38.9523 7.30787 38.2601 6.42346 37.991C5.07763 37.6064 4.88537 37.2604 5.19299 35.9145C5.73132 33.6074 6.30811 31.3003 6.80799 28.9162C6.92335 28.4163 7.15406 28.2625 7.65394 28.2625C9.80727 28.2625 11.9991 28.301 14.1139 28.2625C14.6523 28.2625 14.8445 28.4548 14.9599 28.9546C15.4213 30.8388 15.8828 32.7614 16.3442 34.6072C16.921 37.0297 16.8056 37.2988 14.5369 38.1448C14.3447 39.4137 14.5369 39.6829 15.7674 39.6829C19.4588 39.6829 23.1118 39.6829 26.8032 39.6829C27.1109 39.6829 27.38 39.6829 27.6876 39.6829C27.803 38.9907 27.9184 38.2601 27.1493 38.0679C26.1495 37.8756 26.1111 37.2988 26.1111 36.4913C26.1111 31.2233 26.1111 25.9169 26.1111 20.6489C26.1111 20.4182 26.1111 20.1491 26.1495 19.9183C26.3418 20.4567 26.4956 20.995 26.611 21.5333C27.803 27.3012 28.9181 33.1075 30.1101 38.8369C30.1486 39.1445 30.61 39.5675 30.8792 39.606C31.6482 39.7213 32.4557 39.6444 33.2248 39.6444C34.5706 33.4151 35.8395 27.2628 37.1469 21.0335C37.3007 21.2257 37.3007 21.3795 37.3007 21.5333C37.3007 26.263 37.3007 30.9926 37.3007 35.6838C37.3007 37.3757 37.2623 37.4142 35.7242 38.0294C35.6857 38.6062 35.4935 39.4906 36.301 39.5675C38.5312 39.6829 40.723 39.606 42.9917 39.606C43.1455 38.8369 43.184 38.1448 42.338 37.9141C41.6074 37.7218 41.4151 37.2219 41.4151 36.5298C41.4151 35.107 41.4151 33.6843 41.4151 32.1847C41.4151 27.4935 41.4151 22.8792 41.4151 18.2264C41.4151 16.9575 41.569 16.7652 42.761 16.3423C42.9148 16.3038 43.0686 16.15 43.1071 15.9962C43.4147 15.4963 43.0301 14.958 42.2226 14.958ZM7.69239 26.0323C8.69216 21.6487 9.65347 17.2651 10.6532 12.9585C10.6917 12.9585 10.7686 12.9585 10.807 12.9585L14.2678 26.0323C12.076 26.0323 9.88418 26.0323 7.69239 26.0323ZM128.856 14.9964C127.241 14.8811 125.664 14.958 124.049 14.958C123.896 15.6886 123.896 16.4192 124.588 16.573C125.626 16.8037 125.664 17.4574 125.664 18.3033C125.664 22.3793 125.664 26.4168 125.664 30.4927C125.664 30.685 125.664 30.8773 125.664 31.0695C125.434 30.8773 125.318 30.685 125.203 30.4927C123.626 26.5706 122.05 22.61 120.512 18.6494C120.127 17.6496 119.935 16.6499 119.512 15.6501C119.397 15.3425 119.012 14.9964 118.781 14.9964C116.82 14.958 114.859 14.9964 112.86 14.9964C112.744 14.9964 112.667 15.1118 112.629 15.1118C112.591 15.7655 112.514 16.4576 113.321 16.573C114.167 16.7268 114.359 17.1498 114.359 17.9188C114.359 24.0327 114.359 30.0698 114.359 36.1837C114.359 36.6451 114.321 37.1066 114.129 37.4526C113.936 37.7987 113.436 38.1063 113.09 38.1063C112.783 38.1063 112.36 37.7218 112.206 37.4142C111.86 36.5682 111.629 35.6454 111.36 34.761C109.745 28.5317 108.13 22.2639 106.477 16.0347C106.361 15.6886 106.092 15.1118 105.823 15.0349C104.708 14.9195 103.554 14.9964 102.593 14.9964C102.593 15.9193 102.747 16.7652 102.593 17.6112C101.901 21.1488 101.132 24.6864 100.324 28.1856C99.7859 30.8004 99.2091 33.3382 98.5939 35.953C98.3632 36.9528 97.9017 37.7603 96.7866 38.1063C96.5943 38.1448 96.4021 38.6831 96.4405 38.9907C96.479 39.2983 96.825 39.7213 97.0173 39.7213C98.7477 39.7598 100.516 39.7598 102.247 39.7598C102.401 38.9138 102.401 38.2217 101.516 38.0294C100.786 37.8372 100.632 37.3757 100.747 36.7605C100.978 35.4916 101.247 34.1457 101.516 32.8768C101.555 32.6845 101.901 32.4154 102.093 32.4154C103.362 32.3769 104.708 32.3769 105.977 32.4154C106.169 32.4154 106.477 32.5692 106.515 32.723C106.861 33.9919 107.169 35.2224 107.399 36.5298C107.553 37.2988 107.169 37.8756 106.4 38.1063C106.207 38.1448 105.938 38.4909 105.938 38.6831C105.823 39.4522 106.169 39.7598 106.976 39.7598C110.514 39.7598 114.129 39.7598 117.666 39.7598C117.859 39.7598 118.051 39.7213 118.243 39.7213C118.397 38.6831 118.281 38.337 117.705 38.1448C116.436 37.6449 116.436 37.6449 116.436 36.2222C116.436 30.9157 116.436 25.6093 116.436 20.2644C116.436 20.0337 116.474 19.7645 116.474 19.3416C116.628 19.6876 116.666 19.803 116.705 19.8799C118.666 24.9556 120.627 30.0313 122.627 35.1455C123.126 36.4913 123.396 37.7987 123.896 39.1445C124.011 39.3752 124.395 39.7213 124.665 39.7213C125.664 39.7598 126.626 39.7598 127.779 39.7598C127.779 39.3753 127.779 39.0292 127.779 38.7216C127.779 31.9924 127.779 25.3017 127.779 18.5341C127.779 17.3036 127.933 16.9575 128.971 16.6499C129.471 16.4961 129.625 16.1885 129.471 15.8808C129.356 15.5348 129.048 14.9964 128.856 14.9964ZM102.055 30.0698C102.593 27.3012 103.131 24.6095 103.67 21.9563C103.708 21.9563 103.785 21.9563 103.823 21.9563C104.477 24.6095 105.169 27.3012 105.823 30.0698C104.516 30.0698 103.324 30.0698 102.055 30.0698ZM165.424 37.991C165.117 37.8372 164.847 37.4911 164.77 37.2219C164.232 35.3377 163.694 33.492 163.194 31.6079C161.81 26.3783 160.502 21.1873 159.118 15.9577C159.003 15.6117 158.618 15.0733 158.349 15.0349C157.272 14.9195 156.196 14.9964 155.311 14.9964C155.311 15.8808 155.465 16.6883 155.311 17.4189C154.042 23.5329 152.696 29.6083 151.389 35.7223C151.235 36.376 150.928 36.9527 150.735 37.6064C150.62 37.6064 150.582 37.568 150.505 37.568C150.505 37.3373 150.505 37.0681 150.505 36.8374C150.505 35.107 150.505 33.4536 150.505 31.7232C150.505 31.0311 150.274 30.685 149.505 30.7235C149.274 30.7235 149.005 30.7235 148.813 30.7235C148.467 32.1847 148.236 33.5689 147.89 34.9532C147.582 36.1452 146.775 36.9528 145.583 37.1835C144.237 37.4142 142.929 37.3757 141.545 37.4911C141.545 37.1066 141.545 36.8374 141.545 36.6451C141.545 27.8395 141.545 19.0724 141.545 10.2668C141.545 10.0361 141.507 9.72845 141.584 9.57464C141.814 9.19012 142.16 8.84406 142.583 8.53644C142.776 8.38263 143.122 8.42107 143.429 8.38262C143.583 7.2675 143.429 6.84452 142.737 6.84452C140.392 6.84452 138.008 6.84452 135.585 6.84452C135.47 7.53666 135.393 8.30572 136.085 8.42107C137.277 8.61333 137.277 9.34393 137.277 10.1899C137.277 18.611 137.277 26.9551 137.277 35.3762C137.277 35.8376 137.277 36.2222 137.277 36.6451C137.277 37.4142 136.931 37.9141 136.162 38.1832C135.97 38.2217 135.662 38.5678 135.662 38.8369C135.547 39.6829 135.854 39.9136 136.7 39.9136C142.622 39.9136 148.505 39.9136 154.427 39.9136C154.657 39.9136 154.888 39.8751 155.119 39.8751C155.35 38.6831 155.273 38.4909 154.273 38.1448C153.696 37.9525 153.542 37.568 153.619 37.0681C153.85 35.53 154.158 34.0688 154.465 32.4923C156.003 32.4923 157.464 32.4923 158.926 32.4923C159.118 32.4923 159.426 32.723 159.464 32.9537C159.772 34.1457 160.118 35.2993 160.31 36.4913C160.502 37.3757 160.195 37.8372 159.31 38.1063C158.733 38.2986 158.733 38.76 158.849 39.1061C158.964 39.4137 159.349 39.7982 159.618 39.7982C160.618 39.9136 161.579 39.8367 162.579 39.8367C163.848 39.8367 165.193 39.8367 166.462 39.8367C166.462 38.5678 166.424 38.4139 165.424 37.991ZM154.734 30.0698C155.273 27.3781 155.811 24.7249 156.311 22.0332C156.349 22.0332 156.465 22.0332 156.503 22.0332C157.157 24.6864 157.849 27.3396 158.503 30.1082C157.272 30.0698 156.08 30.0698 154.734 30.0698ZM81.5979 14.958C79.6753 14.958 77.7527 14.958 75.83 14.958C75.5993 14.958 75.3302 14.9964 75.0994 14.9964C74.9456 15.727 74.9456 16.4192 75.7531 16.5345C76.6375 16.6883 76.8298 17.1113 76.7913 17.9188C76.7529 18.3802 76.7913 18.7648 76.7913 19.1877C76.7913 24.8402 76.7913 30.4927 76.7913 36.1453C76.7913 37.3373 76.4068 37.9525 75.5609 38.0679C74.6765 38.2217 74.1381 37.7603 73.7536 36.6067C73.3691 35.2609 72.9077 33.9535 72.5616 32.6076C71.9848 30.3774 71.4465 28.1856 69.024 26.9936C74.0612 25.6478 75.5609 20.0721 72.0233 16.4961C70.7543 15.2271 69.0624 14.8811 67.3321 14.8042C64.9096 14.7657 62.564 14.8042 60.1415 14.8042C59.8338 14.8042 59.6031 14.8426 59.2571 14.8426C59.2186 15.5348 59.1032 16.2654 59.9107 16.3807C60.8336 16.5345 60.949 17.0729 60.949 17.8419C60.949 23.0714 60.949 28.2625 60.949 33.4536C60.949 34.3764 60.949 35.3762 60.949 36.2991C60.949 37.0297 60.6413 37.6449 59.8723 37.7603C59.2186 37.9141 59.2955 38.337 59.334 38.7985C59.3724 39.2983 59.68 39.5291 60.2568 39.5291C62.2179 39.5291 64.179 39.5291 66.1785 39.5291C66.3708 39.5291 66.5246 39.4906 66.7168 39.4906C66.8706 38.7985 66.8706 38.1063 66.14 37.8756C65.2941 37.6449 65.1403 37.145 65.1403 36.4144C65.1403 33.7228 65.1403 30.9926 65.1403 28.301C65.1403 28.1087 65.1787 27.9549 65.2556 27.8011C66.986 27.6473 67.1782 27.7626 67.6012 29.3776C68.1396 31.3002 68.5241 33.2613 69.024 35.1839C69.37 36.6451 69.793 38.0679 70.9081 39.183C71.1004 39.3753 71.408 39.5675 71.6387 39.5675C75.2917 39.606 78.9062 39.5675 82.5977 39.5675C82.7899 38.7985 82.7515 38.1063 81.9055 37.8756C81.1749 37.6833 80.9827 37.2219 80.9827 36.6067C80.9827 35.8376 80.9827 35.0686 80.9827 34.2995C80.9827 28.9547 80.9827 23.6098 80.9827 18.2649C80.9827 16.996 81.1365 16.8037 82.3285 16.3807C82.4823 16.3423 82.6746 16.15 82.6746 15.9962C82.7515 15.4194 82.3669 14.958 81.5979 14.958ZM65.0634 25.6862C65.0634 23.9174 65.0634 22.187 65.0634 20.4567C65.0634 19.6876 65.0634 18.8801 65.0634 18.0342C65.0634 17.3805 65.371 16.9575 66.0631 16.996C66.563 16.996 67.1013 16.996 67.6012 17.0344C68.3318 17.1498 68.8702 17.5727 69.0624 18.3033C69.5623 19.9952 69.6392 21.6487 69.1009 23.3406C68.601 25.1479 67.3321 25.8785 65.0634 25.6862ZM230.332 38.1832C229.64 37.8756 229.447 37.4142 229.255 36.7989C228.678 34.8379 228.063 32.8768 227.448 30.9542C226.91 29.3392 226.064 27.9549 224.333 27.1474C224.872 26.9936 225.256 26.8398 225.679 26.686C227.256 26.1092 228.371 25.071 228.832 23.456C230.024 19.2647 227.948 14.9964 222.718 14.9964C220.257 14.9964 217.835 14.9964 215.374 14.9964C215.066 14.9964 214.605 14.8042 214.528 15.4579C214.489 16.0347 214.566 16.573 215.258 16.6499C216.027 16.7652 216.258 17.1882 216.258 17.8804C216.258 24.0327 216.258 30.2236 216.258 36.376C216.258 37.2219 216.027 37.9141 215.066 38.1063C214.489 38.2217 214.528 38.6831 214.605 39.0292C214.72 39.3368 214.989 39.7598 215.258 39.7598C217.489 39.7982 219.68 39.7982 221.988 39.7982C222.026 39.1061 222.18 38.3755 221.411 38.1832C220.526 37.9525 220.411 37.4142 220.411 36.6451C220.411 33.9535 220.411 31.3002 220.411 28.5701C220.411 28.3779 220.45 28.2241 220.45 28.0318C222.065 27.8395 222.411 28.0318 222.872 29.4545C223.449 31.531 224.064 33.5689 224.564 35.6454C224.91 37.0297 225.295 38.2986 226.333 39.3368C226.525 39.5291 226.794 39.7213 226.986 39.7213C228.217 39.7598 229.447 39.7213 230.716 39.7213C230.793 39.1061 230.947 38.4139 230.332 38.1832ZM220.411 25.6862C220.411 23.0714 220.411 20.5336 220.411 17.9188C220.411 17.4189 220.719 17.0729 221.257 17.0344C221.834 17.0344 222.449 17.0344 222.987 17.1498C223.679 17.2651 224.179 17.6497 224.372 18.3418C224.872 20.0722 224.948 21.8025 224.41 23.4944C223.872 25.1863 222.603 25.8785 220.411 25.6862ZM56.6038 31.877C56.45 32.9922 56.3731 34.1457 56.1424 35.2609C55.9117 36.4913 55.0657 37.2219 53.8737 37.4142C52.7971 37.568 51.7204 37.4526 50.5668 37.4526C50.5668 34.2611 50.5668 31.1464 50.5668 27.9164C51.0667 27.9164 51.4512 27.9164 51.9126 27.9164C53.1816 27.9164 53.4892 28.1472 53.7199 29.3776C53.9506 30.4927 54.1813 30.6081 55.4503 30.3774C55.4503 28.2625 55.4503 26.1092 55.4503 23.9174C55.4503 23.456 55.1426 23.1868 54.6043 23.1868C54.066 23.1868 53.7584 23.2252 53.6815 23.8789C53.5661 24.7249 53.22 25.4939 52.2587 25.6478C51.7204 25.6862 51.1821 25.6478 50.5668 25.6478C50.5668 22.8023 50.5668 20.0721 50.5668 17.2651C51.6435 17.2651 52.7201 17.1498 53.7584 17.3036C55.0273 17.4574 55.5272 18.0342 55.7194 19.3031C55.8348 19.803 55.8348 20.226 55.8732 20.7258C55.9117 22.0717 56.2193 22.2639 57.6036 21.9948C57.6036 21.9563 57.6421 21.841 57.6421 21.8025C57.6421 19.6876 57.6421 17.6112 57.6421 15.4963C57.6421 15.1887 57.4113 14.958 57.296 14.6504C57.2575 14.7657 57.2575 14.8042 57.1806 14.8811C52.9893 14.8811 48.798 14.8811 44.6836 14.8811C44.5682 16.2269 44.6451 16.2654 45.7218 16.6499C45.9525 16.7652 46.2217 17.0344 46.2986 17.3036C46.414 17.6881 46.414 18.0726 46.414 18.4956C46.414 24.1097 46.414 29.7622 46.414 35.3762C46.414 35.8761 46.4524 36.376 46.2986 36.7989C46.1448 37.2604 45.7987 37.7987 45.4142 37.8756C44.7221 38.0679 44.5682 38.4524 44.7221 39.0676C44.8374 39.7213 45.2988 39.7598 45.8372 39.7598C49.6824 39.7598 53.5276 39.7598 57.296 39.7598C57.6036 39.7598 57.8343 39.7598 58.1804 39.7598C58.1804 39.4137 58.2188 39.183 58.2188 38.9907C58.2188 37.0681 58.2188 35.1455 58.2188 33.2229C58.2573 31.8386 57.9497 31.6463 56.6038 31.877ZM97.9017 32.723C97.8633 32.4923 97.5172 32.1462 97.248 32.0693C96.5559 31.9539 95.8253 32.0308 95.2485 32.0308C94.9024 33.4536 94.6717 34.7225 94.3256 35.953C94.018 36.9912 93.249 37.6834 92.0954 37.7218C90.9418 37.7603 89.9805 37.3757 89.4806 36.2991C89.1346 35.6454 88.8269 34.9148 88.7116 34.2226C87.8272 30.4158 87.9425 26.6091 88.3655 22.7638C88.5193 21.1873 88.8654 19.6107 89.7114 18.188C90.4419 16.9575 91.5955 16.573 92.9414 16.7652C94.2103 16.9575 94.7486 17.8035 94.9409 18.9186C95.1716 20.3029 95.4023 21.6872 95.5946 23.1099C95.7484 24.1097 95.9022 24.3019 96.8635 24.3019C97.0942 24.3019 97.3634 24.2635 97.7094 24.2635C97.7094 21.3026 97.7094 18.4572 97.7094 15.6117C97.7094 15.381 97.5172 14.958 97.3249 14.9195C96.9789 14.8042 96.4021 14.7657 96.2867 14.958C95.7868 15.8424 95.21 15.4194 94.6717 15.1502C92.3261 14.2274 90.0959 14.4581 88.0195 15.8808C86.2891 17.0729 85.3278 18.7648 84.6741 20.6874C83.4821 24.3788 83.4821 28.1087 84.0204 31.8386C84.3665 34.1457 85.2124 36.2606 86.8274 38.0294C88.8269 40.1828 92.3261 40.4519 94.5179 39.4137C96.479 38.5678 98.3631 34.9917 97.9017 32.723ZM110.706 1.96107C110.745 4.92191 110.745 7.92119 110.706 10.882C110.706 11.1896 110.36 11.5357 110.168 11.8049C110.014 11.9972 109.707 12.2663 109.784 12.3432C109.937 12.5739 110.168 12.9969 110.437 13.0354C111.706 13.0738 113.052 13.0738 114.321 13.0738C114.552 12.4201 114.206 12.151 113.821 11.8433C113.667 11.6895 113.475 11.4973 113.475 11.305C113.436 9.88226 113.475 8.45953 113.475 6.95989C114.513 6.95989 115.474 6.95989 116.513 6.95989C116.513 8.34417 116.551 9.6131 116.474 10.9589C116.474 11.2666 116.128 11.4973 115.936 11.8049C115.782 11.9972 115.551 12.2663 115.59 12.3432C115.744 12.5739 115.974 12.9969 116.244 12.9969C117.512 13.0354 118.858 13.0354 120.127 13.0354C120.166 12.9969 120.281 12.8816 120.319 12.8431C120.127 12.497 119.858 12.1894 119.666 11.8433C119.512 11.6511 119.204 11.3819 119.204 11.1896C119.166 8.15191 119.166 5.15262 119.204 2.07643C119.204 1.76881 119.55 1.5381 119.743 1.23048C119.896 1.03822 120.204 0.769043 120.127 0.692138C120.012 0.461424 119.781 0.0384547 119.55 0.0384547C118.205 2.34638e-06 116.859 0 115.513 0C115.474 0.115357 115.398 0.192257 115.321 0.307614C115.551 0.615234 115.821 0.884407 116.051 1.19203C116.205 1.34584 116.397 1.49964 116.397 1.65345C116.436 2.88393 116.397 4.07595 116.397 5.30643C115.321 5.30643 114.321 5.30643 113.36 5.30643C113.36 4.19131 113.321 3.15309 113.398 2.07643C113.398 1.76881 113.744 1.53809 113.936 1.30738C114.09 1.11512 114.398 0.807498 114.321 0.730593C114.167 0.499879 113.859 0.153807 113.629 0.153807C112.36 0.115355 111.052 0.115352 109.784 0.115352C109.668 0.23071 109.63 0.269164 109.553 0.346069C109.784 0.653688 110.053 0.922853 110.283 1.26892C110.476 1.53809 110.706 1.76881 110.706 1.96107ZM122.281 2.03797C122.319 4.99881 122.319 7.95964 122.281 10.882C122.281 11.1896 122.05 11.5357 121.819 11.8049C121.665 12.0356 121.281 12.3048 121.319 12.5355C121.435 12.9969 121.781 13.1892 122.242 13.1123C124.395 13.0738 126.587 13.1123 128.779 13.1123C128.971 13.1123 129.164 13.0738 129.471 13.0738C129.471 11.9587 129.51 10.8051 129.471 9.69001C129.433 9.03632 128.971 8.84405 128.356 9.03631C127.895 11.305 127.087 11.9202 124.972 11.4588C124.972 10.0361 124.972 8.57488 124.972 7.03678C125.741 6.99833 126.549 6.80607 126.741 7.80583C126.779 7.95964 126.972 8.19036 127.087 8.19036C127.318 8.19036 127.779 8.03656 127.779 7.95965C127.818 6.95989 127.818 5.96012 127.779 4.96036C127.779 4.72964 127.395 4.46048 127.126 4.30667C127.087 4.26822 126.664 4.49893 126.626 4.65274C126.395 5.53715 125.741 5.5756 125.011 5.42179C125.011 4.15286 125.011 2.96083 125.011 1.6919C125.395 1.6919 125.741 1.6919 126.087 1.6919C127.356 1.6919 127.51 1.84571 127.971 3.03774C128.164 3.53762 128.51 3.8837 129.164 3.53763C129.164 2.65322 129.202 1.73036 129.125 0.845957C129.125 0.615243 128.741 0.19226 128.471 0.153807C126.356 0.115355 124.28 0.15381 122.165 0.192262C121.858 0.192262 121.627 0.230717 121.05 0.230717C121.396 0.730598 121.627 0.99976 121.819 1.30738C121.973 1.53809 122.281 1.76881 122.281 2.03797ZM101.362 4.15285C101.478 3.07619 101.555 1.88417 103.054 1.73036C103.093 1.84572 103.17 1.88417 103.17 1.88417C103.17 4.9219 103.17 7.9981 103.17 11.0358C103.17 11.2666 102.824 11.5742 102.631 11.8049C102.478 11.9972 102.17 12.3048 102.247 12.3817C102.401 12.6124 102.708 12.9585 102.939 13.0354C104.208 13.0738 105.515 13.0738 107.015 13.0738C106.707 12.5739 106.63 12.0741 106.323 11.9587C105.823 11.728 105.823 11.3819 105.823 10.9205C105.823 8.075 105.823 5.26797 105.823 2.4225C105.823 2.19178 105.861 1.96107 105.861 1.73036C107.053 1.69191 107.399 1.96107 107.553 3.11465C107.707 4.11441 107.899 4.22976 108.822 4.15285C108.822 3.03773 108.861 1.88417 108.784 0.769048C108.784 0.538334 108.322 0.115352 108.13 0.115352C105.515 0.0769001 102.901 0.0769095 100.209 0.0769095C100.209 1.19203 100.17 2.34559 100.209 3.42226C100.247 4.0375 100.632 4.34512 101.362 4.15285Z" fill="#091011"/>
</svg>
