<svg width="199" height="40" viewBox="0 0 199 40" fill="none" xmlns="http://www.w3.org/2000/svg">
<g clip-path="url(#clip0_3711_18)">
<path fill-rule="evenodd" clip-rule="evenodd" d="M5.25 17.0833H10.25C14.5 17.0833 16.5 18.1667 16.5 21.25C16.5 25.0833 12.75 25.5833 10.0833 25.5833H5.25V17.0833ZM0 30.0833H10.5833C16.1667 30.0833 21.6667 28.0833 21.6667 21.6667C21.6667 17.9167 19 15 15.3333 14.5833V14.5C18.3333 13.5833 20.4167 11.4167 20.4167 8.08333C20.4167 2.75 15.8333 0.666667 11.4167 0.666667H0V30.0833ZM5.25 5.16667H9.58333C13.5 5.16667 15.25 6.41667 15.25 8.91667C15.25 11.0833 13.5 12.5833 10 12.5833H5.25V5.16667ZM25.0833 30.0833H30.0833V0H25.0833V30.0833ZM33.4167 20.0833C33.4167 26.3333 38.25 30.5 44.25 30.5C50.25 30.5 55.0833 26.3333 55.0833 20.0833C55.0833 13.8333 50.25 9.66667 44.25 9.66667C38.1667 9.66667 33.4167 13.8333 33.4167 20.0833ZM38.3333 20.0833C38.3333 17 40.5 14.0833 44.1667 14.0833C47.8333 14.0833 50 16.9167 50 20.0833C50 23.25 47.8333 26.0833 44.1667 26.0833C40.5833 26.0833 38.3333 23.25 38.3333 20.0833ZM57.25 20.0833C57.25 26.3333 62.0833 30.5 68.0833 30.5C74.0833 30.5 78.9167 26.3333 78.9167 20.0833C78.9167 13.8333 74.0833 9.66667 68.0833 9.66667C62.0833 9.66667 57.25 13.8333 57.25 20.0833ZM62.25 20.0833C62.25 17 64.4167 14.0833 68.0833 14.0833C71.75 14.0833 73.9167 16.9167 73.9167 20.0833C73.9167 23.25 71.75 26.0833 68.0833 26.0833C64.4167 26.0833 62.25 23.25 62.25 20.0833ZM82 10.1667H86.75V13.25H86.8333C87.6667 11.4167 89.5833 9.66667 92.9167 9.66667C96 9.66667 98.0833 10.8333 99.1667 13.3333C100.583 10.8333 102.75 9.66667 105.75 9.66667C111.083 9.66667 112.917 13.4167 112.917 18.1667V30H107.917V18.75C107.917 16.25 107.167 14.0833 104.25 14.0833C101.167 14.0833 100 16.6667 100 19.25V30H95V18.1667C95 15.75 94 14.0833 91.5833 14.0833C88.3333 14.0833 87 16.5 87 19.1667V30H82V10.1667ZM116.833 30.0833H121.583V27.0833H121.667C123.083 29.5 125.75 30.5833 128.5 30.5833C134.667 30.5833 138.333 26 138.333 20.1667C138.333 14.25 134.417 9.75 128.75 9.75C125 9.75 123 11.5 122 12.75H121.917V0H116.917L116.833 30.0833ZM133.333 20.0833C133.333 23.1667 131.167 26.0833 127.5 26.0833C123.833 26.0833 121.667 23.25 121.667 20.0833C121.667 17 123.833 14.0833 127.5 14.0833C131.167 14.1667 133.333 17 133.333 20.0833ZM160.75 21.8333V20.5C160.75 13.5833 157 9.66667 151.417 9.66667C145.417 9.66667 140.583 13.8333 140.583 20.0833C140.583 26.3333 145.417 30.5 151.417 30.5C154.583 30.5 157.5 29.4167 159.833 26.5L156.25 23.8333C155 25.3333 153.417 26.5 150.917 26.5C148.167 26.5 145.917 24.75 145.583 21.75C145.583 21.8333 160.75 21.8333 160.75 21.8333ZM145.583 18.0833C145.917 15.25 147.75 13.3333 150.75 13.3333C153.833 13.3333 155.75 15.1667 155.833 18.0833H145.583ZM164 10.1667H169V13.3333H169.083C170.167 11.0833 172.333 9.66667 175 9.66667C175.583 9.66667 176.167 9.83333 176.75 9.91667V14.75C175.917 14.5833 175.167 14.4167 174.333 14.4167C169.667 14.4167 169 18.3333 169 19.4167V30.0833H164V10.1667ZM193.667 10.1667V13.1667H193.583C192.167 10.75 189.5 9.66667 186.75 9.66667C180.583 9.66667 176.917 14.25 176.917 20.0833C176.917 25.75 180.833 30.25 186.833 30.25C189.333 30.25 191.917 29.3333 193.333 27.3333H193.417V28.75C193.417 32.6667 191.917 35.4167 187.083 35.4167C184.333 35.4167 182.25 34.4167 180.25 32.5833L177.25 36.6667C180.083 39.1667 183.417 39.9167 187.083 39.9167C194.833 39.9167 198.333 35.3333 198.333 28.1667V10.1667H193.667ZM187.833 14.1667C191.417 14.1667 193.75 16.5833 193.75 20C193.75 23.3333 191.5 25.8333 187.833 25.8333C184.5 25.8333 182 23.25 182 20.0833C181.917 16.5 184.333 14.1667 187.833 14.1667Z" fill="#091011"/>
</g>
<defs>
<clipPath id="clip0_3711_18">
<rect width="198.417" height="40" fill="white"/>
</clipPath>
</defs>
</svg>
