<svg width="138" height="40" viewBox="0 0 138 40" fill="none" xmlns="http://www.w3.org/2000/svg">
<mask id="mask0_3711_56" style="mask-type:luminance" maskUnits="userSpaceOnUse" x="0" y="0" width="138" height="40">
<path d="M137.91 0H0V40H137.91V0Z" fill="white"/>
</mask>
<g mask="url(#mask0_3711_56)">
<path d="M14.3879 2.42858C15.2635 2.78679 16.1193 3.28431 16.975 3.94102C17.2138 4.12013 17.4128 4.21963 17.572 4.21963C17.9899 4.21963 18.2685 3.58281 18.3879 2.32908H19.1043C19.0247 3.76192 18.9849 6.28928 18.9849 9.93107H18.2685C18.0894 8.37883 17.8307 7.2047 17.5123 6.38878C17.1939 5.57286 16.6566 4.85644 15.9004 4.25943C15.3829 3.76192 14.766 3.38381 14.0695 3.1052C13.373 2.84649 12.6566 2.70719 11.9004 2.70719C9.79091 2.70719 8.21877 3.74202 7.18394 5.81167C6.14912 7.88132 5.6516 10.4485 5.6516 13.5331C5.6516 16.5977 6.18892 19.145 7.26354 21.1947C8.33817 23.2444 9.93021 24.2793 12.0397 24.2793C12.7561 24.2793 13.4526 24.14 14.169 23.8813C14.8655 23.6226 15.4625 23.2444 15.9402 22.727C16.7163 22.1499 17.2536 21.4136 17.5521 20.5181C17.8506 19.6425 18.0894 18.349 18.2685 16.6574H18.9849C18.9849 20.4584 19.0247 23.0852 19.1043 24.5778H18.3879C18.3282 23.9012 18.2287 23.4235 18.1292 23.1449C18.0098 22.8663 17.8506 22.727 17.6516 22.727C17.4924 22.727 17.2735 22.8066 16.9949 22.9857C16.0596 23.6624 15.1441 24.1599 14.2884 24.5181C13.4327 24.8564 12.3979 25.0355 11.1839 25.0355C8.95509 25.0355 7.02474 24.5778 5.3531 23.6823C3.68145 22.7867 2.38792 21.4733 1.4725 19.7619C0.557077 18.0505 0.0993652 16.0206 0.0993652 13.6525C0.0993652 11.344 0.576977 9.31416 1.5123 7.52311C2.44762 5.75197 3.76106 4.35893 5.4526 3.38381C7.14414 2.40868 9.05459 1.91116 11.2237 1.91116C12.4377 1.89126 13.5123 2.07037 14.3879 2.42858Z" fill="#091011"/>
<path d="M26.5473 10.806C27.4826 8.85572 29.194 7.8806 31.6617 7.8806C33.2935 7.8806 34.4478 8.29851 35.1244 9.11443C35.4826 9.51244 35.7413 10.0299 35.9005 10.6667C36.0597 11.3035 36.1393 12.1393 36.1393 13.194V21.6517C36.1393 22.5075 36.2786 23.1045 36.5771 23.4229C36.8756 23.7413 37.393 23.9005 38.1493 23.9005V24.5572C35.9602 24.4776 31.9204 24.4776 29.9104 24.5572V23.9005C30.5473 23.9005 30.9851 23.7413 31.2239 23.4229C31.4826 23.1045 31.602 22.5075 31.602 21.6517V11.8806C31.602 11.0249 31.4627 10.3682 31.1841 9.93035C30.9055 9.49254 30.3881 9.27363 29.6517 9.27363C28.7761 9.27363 28.0398 9.61194 27.4428 10.2886C26.8458 10.9652 26.5473 11.8408 26.5473 12.8756V21.6517C26.5473 22.5075 26.6667 23.1045 26.9254 23.4229C27.1841 23.7413 27.6219 23.9005 28.2388 23.9005V24.5572C26.2289 24.4776 22.1891 24.4776 20 24.5572V23.9005C20.7363 23.9005 21.2537 23.7413 21.5522 23.4229C21.8507 23.1045 22.0099 22.5075 22.0099 21.6517V3.76119C22.0099 2.80597 21.8507 2.08955 21.5522 1.65174C21.2537 1.21393 20.7363 0.995025 20 0.995025V0.338308C20.6766 0.39801 21.3134 0.437811 21.9502 0.437811C23.7811 0.437811 25.2935 0.298507 26.5473 0V10.806Z" fill="#091011"/>
<path d="M79.2836 23.4222C79.5821 23.7407 80.0995 23.8999 80.8358 23.8999V24.5566C78.7463 24.477 74.806 24.477 72.796 24.5566V23.8999C73.3532 23.8999 73.7513 23.7407 73.9702 23.4222C74.1891 23.1038 74.3085 22.5068 74.3085 21.6312V11.88C74.3085 11.0044 74.1692 10.3477 73.9105 9.90985C73.6517 9.47204 73.1542 9.27304 72.4179 9.27304C71.6418 9.27304 70.9652 9.59144 70.3881 10.2482C69.811 10.9049 69.4726 11.7009 69.3731 12.6362V13.1934V21.6511C69.3731 22.5068 69.5124 23.1038 69.7712 23.4222C70.0299 23.7407 70.5075 23.8999 71.204 23.8999V24.5566C69.194 24.477 65.3532 24.477 63.3433 24.5566V23.8999C63.9005 23.8999 64.2985 23.7407 64.5174 23.4222C64.7363 23.1038 64.8557 22.5068 64.8557 21.6511V11.88C64.8557 11.0044 64.7363 10.3477 64.5174 9.90985C64.2786 9.47204 63.8408 9.27304 63.1642 9.27304C62.3284 9.27304 61.6119 9.63125 61.0149 10.3278C60.4179 11.0243 60.1194 11.8999 60.1194 12.9148V21.6511C60.1194 22.5068 60.2388 23.1038 60.4577 23.4222C60.6766 23.7407 61.0746 23.8999 61.6318 23.8999V24.5566C59.7811 24.477 55.8408 24.477 53.592 24.5566V23.8999C54.3483 23.8999 54.8657 23.7407 55.1642 23.4222C55.4627 23.1038 55.602 22.5068 55.602 21.6511V11.7606C55.602 10.8054 55.4627 10.089 55.1642 9.65115C54.8657 9.21333 54.3483 8.99443 53.592 8.99443V8.33771C54.2687 8.39741 54.9055 8.43722 55.5423 8.43722C57.4129 8.43722 58.9453 8.29791 60.1393 7.9994V10.8253C61.0547 8.87503 62.6866 7.8999 65.0149 7.8999C66.607 7.8999 67.7612 8.31781 68.4776 9.13373C68.8756 9.55164 69.1343 10.1885 69.2537 11.0243C69.791 9.88995 70.5075 9.09393 71.3831 8.61632C72.2587 8.13871 73.2935 7.8999 74.4677 7.8999C76.0597 7.8999 77.2139 8.31781 77.9304 9.13373C78.2687 9.51184 78.5075 10.0293 78.6468 10.6661C78.7861 11.3228 78.8657 12.1586 78.8657 13.2133V21.671C78.8259 22.5068 78.9652 23.1038 79.2836 23.4222Z" fill="#091011"/>
<path d="M95.3232 9.97015C96.3779 11.3632 96.8953 13.3731 96.8953 16.0199C96.8953 19.1045 96.2187 21.3731 94.8853 22.8259C93.552 24.2786 91.8207 25.0149 89.6913 25.0149C88.2386 25.0149 87.0645 24.6567 86.1689 23.9204C85.4127 23.8607 84.6565 23.9403 83.9003 24.1791C83.1441 24.4179 82.547 24.7164 82.1092 25.0945L81.6316 24.8159C81.7709 24.2985 81.8505 23.7015 81.8505 23.0647V3.76119C81.8505 2.80597 81.6913 2.08955 81.3928 1.65174C81.0943 1.21393 80.5769 0.995025 79.8406 0.995025V0.338308C80.4973 0.39801 81.1341 0.437811 81.7908 0.437811C83.6217 0.437811 85.1341 0.298507 86.3878 0V10.8657C86.8256 9.91045 87.4625 9.15423 88.2983 8.65672C89.1341 8.1393 90.1092 7.8806 91.1839 7.8806C92.8953 7.8806 94.2684 8.57711 95.3232 9.97015ZM91.2834 22.408C91.8406 21.1144 92.1391 19.1244 92.1391 16.4776C92.1391 13.8905 91.9003 12.0597 91.4227 10.9254C90.945 9.81095 90.2485 9.25373 89.353 9.25373C88.6764 9.25373 88.0595 9.49254 87.5222 9.99005C86.9649 10.4876 86.5868 11.1443 86.4077 11.9801V23.5224C87.1043 24.0796 87.8804 24.3781 88.7361 24.3781C89.8704 24.3582 90.7261 23.7015 91.2834 22.408Z" fill="#091011"/>
<path d="M111.164 19.9212L111.721 20.1003C111.303 21.4536 110.547 22.6277 109.472 23.5829C108.398 24.5381 107.045 25.0158 105.433 25.0158C103.204 25.0158 101.453 24.2993 100.139 22.8864C98.8257 21.4735 98.1689 19.3838 98.1689 16.6177C98.1689 13.7918 98.8655 11.6226 100.278 10.1301C101.691 8.63757 103.542 7.88135 105.87 7.88135C109.811 7.88135 111.781 10.2097 111.781 14.8664H102.945C102.925 15.1848 102.905 15.6823 102.905 16.3391C102.905 17.7122 103.104 18.8664 103.482 19.8017C103.86 20.7172 104.378 21.3939 104.995 21.8118C105.612 22.2297 106.268 22.4486 106.985 22.4486C108.736 22.4486 110.109 21.5929 111.164 19.9212ZM103.821 9.951C103.323 10.8863 103.025 12.3192 102.885 14.2694H107.821C107.86 12.6177 107.701 11.2445 107.343 10.1699C106.985 9.09528 106.428 8.55796 105.691 8.55796C104.935 8.55796 104.318 9.01568 103.821 9.951Z" fill="#091011"/>
<path d="M124.915 8.73666C125.393 9.29387 125.632 9.99039 125.632 10.7864C125.632 11.5625 125.413 12.1993 124.955 12.6969C124.497 13.1944 123.92 13.4332 123.184 13.4332C122.467 13.4332 121.91 13.2541 121.492 12.876C121.074 12.5178 120.855 12.0202 120.855 11.4232C120.855 10.4083 121.313 9.59238 122.229 8.97546C122.149 8.95556 122.01 8.93566 121.851 8.93566C121.632 8.93566 121.472 8.95556 121.353 8.99536C120.557 9.11477 119.88 9.61228 119.323 10.4481C118.766 11.2839 118.487 12.1396 118.487 13.0352V21.3735C118.487 22.3287 118.726 23.0053 119.204 23.3834C119.681 23.7615 120.418 23.9406 121.453 23.9406V24.5974C121.154 24.5974 120.915 24.5775 120.736 24.5576C118.607 24.4979 114.607 24.4979 112.597 24.5576C112.438 24.5775 112.219 24.5974 111.96 24.5974V23.9406C112.716 23.9406 113.234 23.7814 113.532 23.463C113.831 23.1446 113.97 22.5476 113.97 21.6919V11.7615C113.97 10.8063 113.831 10.0899 113.532 9.65208C113.234 9.21427 112.716 8.99536 111.96 8.99536V8.33865C112.637 8.39835 113.273 8.43815 113.91 8.43815C115.781 8.43815 117.313 8.29885 118.507 8.00034V10.9257C118.905 10.0302 119.482 9.29387 120.239 8.73666C120.995 8.17944 121.851 7.90084 122.786 7.90084C123.721 7.88094 124.438 8.17944 124.915 8.73666Z" fill="#091011"/>
<path d="M133.612 8.17925C134.289 8.37825 134.786 8.59716 135.144 8.85586C135.363 8.99517 135.542 9.07477 135.701 9.07477C135.881 9.07477 136.06 8.97527 136.179 8.77626C136.318 8.57726 136.398 8.29865 136.438 7.92054H137.094C137.015 8.99517 136.975 10.826 136.975 13.4529H136.318C136.139 12.0797 135.721 10.9056 135.085 9.97029C134.448 9.03497 133.512 8.57726 132.298 8.57726C131.662 8.57726 131.144 8.75636 130.746 9.11457C130.328 9.47278 130.129 9.97029 130.129 10.5872C130.129 11.3036 130.368 11.9205 130.846 12.4181C131.323 12.9355 132.08 13.5524 133.114 14.2887L134.03 14.9454C135.303 15.9006 136.259 16.7763 136.856 17.5325C137.473 18.2887 137.771 19.224 137.771 20.3584C137.771 21.2738 137.512 22.0897 136.975 22.8061C136.438 23.5225 135.721 24.0598 134.826 24.438C133.93 24.8161 132.935 24.9952 131.841 24.9952C130.687 24.9952 129.711 24.7763 128.895 24.3385C128.219 24.0001 127.741 23.7812 127.443 23.6817C127.224 23.622 127.045 23.6817 126.886 23.8807C126.726 24.0797 126.607 24.3783 126.527 24.7763H125.871C125.95 23.5822 125.99 21.4927 125.99 18.4877H126.647C127.065 22.3484 128.478 24.2787 130.886 24.2787C131.502 24.2787 132.02 24.0996 132.438 23.7215C132.876 23.3633 133.075 22.7862 133.075 22.0499C133.075 21.4728 132.935 20.9355 132.677 20.4778C132.418 20.02 132.08 19.6021 131.682 19.2439C131.284 18.8857 130.687 18.3882 129.891 17.7713C128.955 17.0151 128.239 16.4181 127.741 15.9404C127.244 15.4827 126.826 14.9255 126.488 14.3086C126.149 13.6917 125.97 12.9753 125.97 12.1991C125.97 10.8658 126.488 9.79119 127.542 9.01507C128.597 8.23895 129.871 7.86084 131.383 7.86084C132.219 7.88074 132.935 7.98024 133.612 8.17925Z" fill="#091011"/>
<path d="M37.6514 30.2688C36.9748 30.2688 36.4374 30.2489 36.0593 30.229V30.5474C36.4772 30.5673 36.7758 30.627 36.9748 30.7066C37.1738 30.7862 37.3131 30.9454 37.3728 31.1245C37.4325 31.3235 37.4723 31.622 37.4723 32.0201V37.1146L32.517 30.2091C32.119 30.2489 31.6414 30.2489 31.0842 30.2489C30.4673 30.2489 29.9897 30.229 29.6315 30.2091V30.5275C30.0096 30.5474 30.2683 30.5872 30.4474 30.6469C30.6265 30.7066 30.726 30.826 30.8056 31.0051C30.8653 31.1842 30.9051 31.4628 30.9051 31.8609V37.8708C30.9051 38.2688 30.8653 38.5673 30.8056 38.7663C30.7459 38.9653 30.6265 39.1046 30.4474 39.2041C30.2683 39.2837 29.2136 39.8012 28.5768 38.3683L24.935 30.1494H24.6962L21.2534 37.9305C21.0743 38.3285 20.8952 38.6668 20.6962 38.9056C20.4971 39.1444 20.2583 39.3036 19.9797 39.3832V39.7017C20.2583 39.6619 22.4275 39.6619 22.7459 39.7017V39.3832C22.328 39.3434 22.0096 39.2439 21.8305 39.1046C21.6315 38.9454 21.5519 38.7464 21.5519 38.4678C21.5519 38.2091 21.6315 37.8708 21.8106 37.4728L22.3479 36.2987H26.129L26.925 38.0698C27.0643 38.3882 27.1439 38.627 27.1439 38.8061C27.1439 39.0051 27.0444 39.1444 26.8653 39.224C26.6862 39.3036 26.4076 39.3633 26.0096 39.3832V39.7017C26.4474 39.6619 32.318 39.6619 32.6763 39.7017V39.3832C32.2583 39.3633 31.9598 39.3036 31.7608 39.224C31.5618 39.1444 31.4225 38.9852 31.3628 38.8061C31.3031 38.6071 31.2633 38.3086 31.2633 37.9106V31.1842L37.4723 39.8012H37.8305V32.04C37.8305 31.642 37.8703 31.3434 37.93 31.1444C37.9897 30.9454 38.1091 30.8061 38.2882 30.7066C38.4673 30.627 38.726 30.5673 39.1041 30.5474V30.229C38.7658 30.2489 38.2683 30.2688 37.6514 30.2688ZM22.4673 35.9803L24.2384 32.04L25.9897 35.9803H22.4673Z" fill="#091011"/>
<path d="M47.4823 31.4024C48.2982 32.1785 48.6962 33.3328 48.6962 34.8253C48.6962 35.8004 48.4972 36.6561 48.0992 37.3925C47.7012 38.1288 47.1241 38.686 46.3878 39.084C45.6315 39.482 44.736 39.681 43.6813 39.681L42.7858 39.6611C42.2087 39.6412 41.7708 39.6213 41.5121 39.6213C40.6564 39.6213 40.0196 39.6412 39.5818 39.6611V39.3427C39.9599 39.3228 40.2186 39.283 40.3977 39.2233C40.5768 39.1636 40.6763 39.0442 40.7559 38.8651C40.8156 38.686 40.8554 38.4074 40.8554 38.0094V31.8601C40.8554 31.4621 40.8156 31.1835 40.7559 31.0044C40.6962 30.8253 40.5768 30.7059 40.3977 30.6462C40.2186 30.5865 39.9599 30.5467 39.5818 30.5268V30.2084C39.94 30.2482 40.4375 30.2482 41.0942 30.2482L42.4077 30.2283C43.1042 30.2084 43.5818 30.1885 43.8206 30.1885C45.4524 30.2283 46.6664 30.6263 47.4823 31.4024ZM42.7062 30.6064C42.547 30.686 42.4276 30.8054 42.3679 31.0044C42.3082 31.1835 42.2684 31.4621 42.2684 31.8402V38.0492C42.2684 38.4273 42.3082 38.7059 42.3679 38.885C42.4276 39.0641 42.547 39.2034 42.7062 39.283C42.8654 39.3626 43.1042 39.3825 43.4425 39.3825C44.3778 39.3825 45.134 39.2233 45.6713 38.885C46.2087 38.5467 46.5868 38.0492 46.8057 37.3925C47.0246 36.7357 47.1241 35.8999 47.1241 34.8651C47.1241 33.3527 46.8455 32.2382 46.2883 31.5417C45.731 30.8452 44.7758 30.487 43.4226 30.487C43.1241 30.5069 42.8853 30.5467 42.7062 30.6064Z" fill="#091011"/>
<path d="M56.2387 35.2235V38.0295C56.2387 38.4275 56.2785 38.7061 56.3581 38.8852C56.4377 39.0643 56.577 39.1837 56.7959 39.2434C56.9949 39.3031 57.3332 39.3429 57.8108 39.3628V39.6812C57.2735 39.6414 53.97 39.6414 53.5322 39.6812V39.3628C53.9103 39.3429 54.169 39.3031 54.3481 39.2434C54.5273 39.1837 54.6268 39.0643 54.7064 38.8852C54.7661 38.7061 54.8059 38.4275 54.8059 38.0295V30.328C54.8059 29.93 54.7661 29.6514 54.7064 29.4723C54.6467 29.2932 54.5273 29.1738 54.3481 29.1141C54.169 29.0544 53.9103 29.0146 53.5322 28.9947V28.6763C53.97 28.7161 54.6069 28.7161 55.4228 28.7161L57.0944 28.6962C57.2934 28.6763 57.5123 28.6763 57.771 28.6763C58.985 28.6763 59.9203 28.9549 60.5571 29.5121C61.1939 30.0693 61.5123 30.8056 61.5123 31.7409C61.5123 32.3181 61.3929 32.8554 61.1342 33.3728C60.8755 33.8902 60.4576 34.328 59.8407 34.6862C59.2437 35.0444 58.4278 35.2235 57.4327 35.2235H56.2387ZM56.6765 29.0942C56.5173 29.1738 56.3979 29.2932 56.3382 29.4922C56.2785 29.6713 56.2387 29.9499 56.2387 30.328V34.925H57.2735C58.2884 34.925 58.985 34.6464 59.383 34.1091C59.781 33.5718 59.9601 32.8355 59.9601 31.92C59.9601 30.9051 59.7611 30.1688 59.3631 29.6912C58.9651 29.2136 58.3083 28.9748 57.373 28.9748C57.0745 28.9748 56.8357 29.0146 56.6765 29.0942Z" fill="#091011"/>
<path d="M86.9053 32.0594C86.9053 32.5967 86.9251 33.0146 86.945 33.333H86.5868C86.5271 32.6166 86.4276 32.0594 86.2883 31.6614C86.149 31.2832 85.9301 31.0046 85.6316 30.8255C85.3331 30.6464 84.8953 30.5668 84.3381 30.5668H83.3431V37.8504C83.3431 38.2882 83.3829 38.6066 83.4625 38.8056C83.5421 39.0046 83.6814 39.1439 83.9003 39.2036C84.0993 39.2832 84.4376 39.323 84.9152 39.3429V39.6614C84.3779 39.6216 80.8356 39.6216 80.3381 39.6614V39.3429C80.7958 39.323 81.1341 39.2832 81.353 39.2036C81.552 39.124 81.7112 39.0046 81.7908 38.8056C81.8704 38.6066 81.9102 38.2882 81.9102 37.8504V30.5668H80.9152C80.358 30.5668 79.9202 30.6464 79.6217 30.8255C79.3232 31.0046 79.1043 31.2832 78.9649 31.6614C78.8256 32.0395 78.7261 32.5967 78.6664 33.333H78.3082C78.348 32.9947 78.348 32.5768 78.348 32.0594C78.348 31.5221 78.3082 30.9051 78.2485 30.2285C79.1043 30.2683 80.5769 30.2683 82.6266 30.2683C84.6764 30.2683 86.1291 30.2484 87.0048 30.2285C86.9451 30.9051 86.9053 31.5221 86.9053 32.0594Z" fill="#091011"/>
<path d="M96.8556 30.5467C96.4974 30.5666 96.2188 30.6263 96.0396 30.7059C95.8605 30.7855 95.7411 30.9447 95.6814 31.1437C95.6217 31.3427 95.5819 31.6412 95.5819 32.0392V39.7606H95.2237L89.0148 31.1437V37.8701C89.0148 38.2681 89.0546 38.5666 89.1143 38.7656C89.174 38.9646 89.3133 39.1039 89.5123 39.1835C89.7113 39.2631 90.0098 39.3228 90.4277 39.3427V39.6611C90.0496 39.6213 87.7411 39.6213 87.4028 39.6611V39.3427C87.761 39.3228 88.0396 39.2631 88.2187 39.1835C88.3979 39.1039 88.5173 38.9447 88.577 38.7457C88.6367 38.5467 88.6765 38.2482 88.6765 37.8502V31.8402C88.6765 31.4422 88.6367 31.1636 88.577 30.9845C88.5173 30.8054 88.3979 30.686 88.2187 30.6263C88.0396 30.5666 87.7809 30.5268 87.4028 30.5069V30.1885C87.7411 30.2283 88.2187 30.2283 88.8556 30.2283C89.4128 30.2283 89.8904 30.2084 90.2884 30.1885L95.2436 37.0939V32.0392C95.2436 31.6412 95.2038 31.3427 95.1441 31.1437C95.0844 30.9447 94.9451 30.8054 94.7461 30.7258C94.5471 30.6462 94.2486 30.5865 93.8307 30.5666V30.2482C94.2088 30.288 94.7262 30.288 95.4227 30.288C96.0396 30.288 96.5173 30.2681 96.8755 30.2482V30.5467H96.8556Z" fill="#091011"/>
<path d="M105.074 39.6813C104.398 39.6415 98.3083 39.6415 97.3132 39.6813V39.3628C97.6913 39.3429 97.95 39.3031 98.1292 39.2434C98.3083 39.1837 98.4078 39.0643 98.4874 38.8852C98.5471 38.7061 98.5869 38.4275 98.5869 38.0295V31.8803C98.5869 31.4822 98.5471 31.2036 98.4874 31.0245C98.4277 30.8454 98.3083 30.726 98.1292 30.6663C97.95 30.6066 97.6913 30.5668 97.3132 30.5469V30.2285C98.2884 30.2683 99.7411 30.2683 101.671 30.2683C103.124 30.2683 104.159 30.2484 104.756 30.2285C104.676 30.8454 104.657 31.4026 104.657 31.9002C104.657 32.2982 104.676 32.6166 104.696 32.8554H104.338C104.259 31.9997 104.079 31.4026 103.801 31.0842C103.522 30.7459 103.045 30.5867 102.408 30.5867H101.273C100.895 30.5867 100.637 30.6066 100.458 30.6663C100.278 30.726 100.179 30.8454 100.099 31.0245C100.04 31.2036 99.9998 31.4822 99.9998 31.8803V34.7658H101.293C101.632 34.7658 101.87 34.6862 102.05 34.5071C102.229 34.328 102.348 34.1489 102.408 33.9499C102.467 33.7509 102.527 33.4922 102.587 33.1738H102.945C102.905 33.532 102.905 33.9101 102.905 34.328V34.925C102.905 35.323 102.945 35.9002 103.005 36.6564H102.647C102.587 36.1589 102.467 35.7609 102.288 35.4822C102.109 35.2036 101.791 35.0643 101.313 35.0643H100.02V38.0096C100.02 38.4076 100.06 38.6862 100.119 38.8653C100.179 39.0444 100.298 39.1638 100.477 39.2235C100.657 39.2832 100.915 39.3031 101.293 39.3031H102.428C102.945 39.3031 103.363 39.2235 103.661 39.0643C103.96 38.9051 104.199 38.6265 104.338 38.2683C104.497 37.9101 104.597 37.3927 104.657 36.7161H105.015C104.975 36.9947 104.975 37.3728 104.975 37.8305C104.955 38.3877 104.995 38.9847 105.074 39.6813Z" fill="#091011"/>
<path d="M119.423 30.1489C119.682 30.2485 119.96 30.3878 120.239 30.5669C120.458 30.7062 120.637 30.7858 120.776 30.7858C120.876 30.7858 120.935 30.7261 120.995 30.6266C121.055 30.5271 121.095 30.348 121.114 30.1091H121.473C121.413 30.6465 121.393 31.6017 121.393 32.9748H121.035C120.975 32.2385 120.736 31.6017 120.318 31.0843C119.9 30.5669 119.284 30.3082 118.488 30.3082C117.93 30.3082 117.493 30.4475 117.134 30.746C116.776 31.0445 116.597 31.4027 116.597 31.8405C116.597 32.1589 116.677 32.4375 116.836 32.6763C116.995 32.9151 117.194 33.1141 117.453 33.2932C117.711 33.4723 118.07 33.6713 118.527 33.93L119.045 34.2087C119.682 34.547 120.199 34.8654 120.597 35.1241C120.995 35.4027 121.294 35.7012 121.532 36.0395C121.771 36.3778 121.891 36.7957 121.891 37.2534C121.891 38.0892 121.592 38.746 120.975 39.2037C120.378 39.6614 119.602 39.9002 118.706 39.9002C118.209 39.9002 117.811 39.8405 117.493 39.741C117.174 39.6415 116.876 39.5022 116.577 39.3231C116.358 39.1838 116.179 39.1042 116.04 39.1042C115.94 39.1042 115.881 39.1639 115.821 39.2634C115.761 39.3629 115.721 39.542 115.701 39.7808H115.343C115.383 39.2634 115.403 38.129 115.403 36.3579H115.761C115.841 37.3131 116.099 38.0892 116.537 38.6863C116.975 39.2833 117.672 39.5818 118.587 39.5818C119.104 39.5818 119.562 39.4425 119.94 39.144C120.318 38.8455 120.517 38.4077 120.517 37.8305C120.517 37.4922 120.418 37.1937 120.219 36.9151C120.02 36.6564 119.761 36.4176 119.423 36.1987C119.085 35.9997 118.627 35.741 118.03 35.4226C117.174 34.9848 116.537 34.547 116.08 34.1091C115.642 33.6713 115.403 33.1141 115.403 32.4176C115.403 31.6415 115.682 31.0644 116.259 30.6266C116.816 30.2087 117.512 29.9897 118.328 29.9897C118.806 30.0096 119.164 30.0494 119.423 30.1489Z" fill="#091011"/>
<path d="M52.9748 23.3242C52.6564 23.5431 52.3778 23.6426 52.1389 23.6426C51.8603 23.6426 51.6812 23.5431 51.5817 23.3242C51.4822 23.1053 51.4424 22.767 51.4424 22.2496V13.6923C51.4424 12.5381 51.3628 11.6226 51.2036 10.9659C51.0444 10.2893 50.7459 9.73209 50.2683 9.27438C49.7708 8.77687 49.134 8.41866 48.3778 8.19976C47.6215 7.98085 46.726 7.88135 45.7111 7.88135C44.7161 7.88135 43.8205 7.98085 42.9847 8.15995C42.1489 8.33906 41.4524 8.61767 40.8952 8.93607C40.3181 9.29428 39.8802 9.67239 39.5817 10.0903C39.3031 10.5082 39.1638 11.0057 39.1638 11.5828C39.1638 12.2794 39.3628 12.8565 39.7608 13.3142C40.1588 13.7719 40.7161 14.0107 41.4524 14.0107C42.1489 14.0107 42.726 13.7918 43.2036 13.3739C43.6812 12.956 43.92 12.3988 43.92 11.6823C43.92 11.1251 43.7608 10.6276 43.4424 10.2097C43.124 9.7918 42.6663 9.47339 42.0693 9.27438C42.5867 8.77687 43.3628 8.51816 44.3579 8.51816C45.2136 8.51816 45.8504 8.75697 46.2683 9.25448C46.6862 9.75199 46.8852 10.4286 46.8852 11.3042V13.752C46.8852 14.3092 46.6265 14.7669 46.0892 15.0853C45.5519 15.4037 44.7161 15.7619 43.5618 16.16C42.4673 16.5381 41.5718 16.8963 40.8753 17.2346C40.1787 17.5729 39.5817 18.0505 39.0842 18.6674C38.5867 19.2843 38.3479 20.0605 38.3479 21.0158C38.3479 22.1501 38.6862 23.0655 39.3429 23.7421C39.9996 24.4187 40.9947 24.7769 42.3479 24.7769C44.3778 24.7769 45.9101 23.9212 46.9648 22.2297C46.9847 23.0058 47.2235 23.6227 47.6812 24.0804C48.1389 24.5381 48.9549 24.7769 50.1091 24.7769C51.3429 24.7769 52.3977 24.4585 53.2733 23.8416L52.9748 23.3242ZM46.9051 21.4934C46.2882 22.3491 45.5917 22.7869 44.7758 22.7869C44.1986 22.7869 43.721 22.5879 43.3628 22.17C43.0046 21.7521 42.8255 21.1352 42.8255 20.2595C42.8255 19.2843 43.0444 18.5281 43.4623 17.9908C43.8802 17.4734 44.4972 16.9361 45.3131 16.4187C46.129 15.9211 46.6663 15.4634 46.925 15.0455V21.4934H46.9051Z" fill="#091011"/>
<path d="M114.726 39.0046C114.487 39.2434 114.248 39.3429 114.049 39.3429C113.89 39.3429 113.771 39.2633 113.671 39.124C113.572 38.9648 113.472 38.726 113.393 38.3479L113.054 36.935C112.915 36.3778 112.696 35.9798 112.378 35.741C112.059 35.5021 111.622 35.323 111.064 35.2434C110.925 35.2235 110.746 35.2036 110.527 35.1837C111.622 35.0444 112.418 34.726 112.895 34.2285C113.373 33.731 113.612 33.1738 113.612 32.5768C113.612 31.8803 113.293 31.323 112.696 30.8852C112.079 30.4474 111.184 30.2285 110.03 30.2285C109.811 30.2285 109.592 30.2285 109.433 30.2484L107.84 30.2683C107.005 30.2683 106.388 30.2484 105.95 30.2285V30.5469C106.328 30.5668 106.587 30.6066 106.766 30.6663C106.945 30.726 107.044 30.8454 107.124 31.0245C107.184 31.2036 107.224 31.4822 107.224 31.8803V38.0295C107.224 38.4275 107.184 38.7061 107.124 38.8852C107.064 39.0643 106.945 39.1837 106.766 39.2434C106.587 39.3031 106.328 39.3429 105.95 39.3628V39.6813C106.388 39.6415 109.433 39.6415 109.91 39.6813V39.3628C109.532 39.3429 109.273 39.3031 109.094 39.2434C108.915 39.1837 108.816 39.0643 108.736 38.8852C108.676 38.7061 108.637 38.4275 108.637 38.0295V35.3031H109.532C110.089 35.3031 110.507 35.4026 110.806 35.6017C111.084 35.8007 111.303 36.1788 111.442 36.7758L111.92 38.726C112.119 39.5221 112.656 39.9002 113.512 39.9002C113.87 39.9002 114.169 39.8206 114.428 39.6813C114.627 39.5618 114.786 39.4225 114.945 39.2434L114.726 39.0046ZM108.637 35.0046V31.8803C108.637 31.5021 108.656 31.2235 108.716 31.0444C108.776 30.8653 108.855 30.726 108.995 30.6464C109.134 30.5668 109.353 30.5469 109.632 30.5469C110.487 30.5469 111.104 30.726 111.482 31.1041C111.86 31.4623 112.059 32.0196 112.059 32.7758C112.059 33.4922 111.9 34.0494 111.562 34.4275C111.224 34.8255 110.607 35.0046 109.691 35.0046H108.637Z" fill="#091011"/>
<path d="M78.5668 39.0057C78.328 39.2445 78.0892 39.364 77.8902 39.364C77.731 39.364 77.6116 39.2843 77.512 39.145C77.4125 38.9858 77.313 38.747 77.2334 38.3689L76.8951 36.956C76.7558 36.3988 76.5369 36.0008 76.2185 35.762C75.9001 35.5232 75.4623 35.344 74.9051 35.2644C74.7658 35.2445 74.5867 35.2246 74.3678 35.2047C75.4623 35.0654 76.2583 34.747 76.7359 34.2495C77.2135 33.752 77.4523 33.1948 77.4523 32.5978C77.4523 31.9013 77.1339 31.3441 76.5369 30.9062C75.92 30.4684 75.0245 30.2495 73.8703 30.2495C73.6514 30.2495 73.4324 30.2495 73.2732 30.2694L71.6812 30.2893C70.8454 30.2893 70.2285 30.2694 69.7907 30.2495V30.5679C70.1688 30.5878 70.4275 30.6276 70.6066 30.6873C70.7857 30.747 70.8852 30.8664 70.9648 31.0455C71.0245 31.2246 71.0643 31.5033 71.0643 31.9013V38.0505C71.0643 38.4485 71.0245 38.7271 70.9648 38.9062C70.9051 39.0853 70.7857 39.2047 70.6066 39.2644C70.4275 39.3242 69.2732 39.7819 68.7359 38.3888L65.0941 30.1699H64.8553L61.4125 37.951C61.2334 38.349 61.0543 38.6873 60.8553 38.9261C60.6563 39.1649 60.4175 39.3241 60.1389 39.4038V39.7222C60.4175 39.6824 62.5867 39.6824 62.9051 39.7222V39.4038C62.4872 39.364 62.1688 39.2644 61.9897 39.1251C61.7907 38.9659 61.7111 38.7669 61.7111 38.4883C61.7111 38.2296 61.7907 37.8913 61.9698 37.4933L62.5071 36.3192H66.2882L67.0842 38.0903C67.2235 38.4087 67.3031 38.6475 67.3031 38.8266C67.3031 39.0256 67.2036 39.1649 67.0245 39.2445C66.8454 39.3241 66.5668 39.3839 66.1688 39.4038V39.7222C66.6066 39.6824 73.2931 39.6824 73.7708 39.7222V39.4038C73.3926 39.3839 73.1339 39.344 72.9548 39.2843C72.7757 39.2246 72.6762 39.1052 72.5966 38.9261C72.5369 38.747 72.4971 38.4684 72.4971 38.0704V35.3441H73.3926C73.9499 35.3441 74.3678 35.4436 74.6663 35.6426C74.9449 35.8416 75.1638 36.2197 75.3031 36.8167L75.7807 38.7669C75.9797 39.563 76.517 39.9411 77.3727 39.9411C77.731 39.9411 78.0295 39.8615 78.2882 39.7222C78.4872 39.6028 78.6464 39.4635 78.8056 39.2644L78.5668 39.0057ZM62.6066 35.9809L64.3777 32.0406L66.129 35.9809H62.6066ZM72.4971 35.0057V31.8814C72.4971 31.5033 72.517 31.2246 72.5767 31.0455C72.6364 30.8664 72.716 30.7271 72.8553 30.6475C72.9946 30.5679 73.2135 30.548 73.4921 30.548C74.3479 30.548 74.9648 30.7271 75.3429 31.1052C75.721 31.4635 75.92 32.0207 75.92 32.7769C75.92 33.4933 75.7608 34.0505 75.4225 34.4286C75.0842 34.8266 74.4673 35.0057 73.5519 35.0057H72.4971Z" fill="#091011"/>
</g>
</svg>
