<svg width="176" height="40" viewBox="0 0 176 40" fill="none" xmlns="http://www.w3.org/2000/svg">
<path d="M23.9589 23.666H23.8416C25.8357 28.3874 28.4457 34.1352 29.5014 37.7716C30.4985 37.5956 31.4662 37.5077 32.4633 37.5077C33.4604 37.5077 34.4281 37.625 35.4252 37.7716C33.695 34.3992 30.0879 26.3053 26.3343 17.6836C24.9559 18.3874 23.6363 19.1205 22.3167 19.883" fill="#091011"/>
<path d="M53.8418 33.7534C53.6952 34.4279 53.5779 35.0437 53.5192 36.0995C51.3491 37.3898 48.8565 38.0056 46.3051 38.0056C39.5309 38.0056 35.6013 33.5775 35.6013 27.5657C35.6013 21.9352 39.0911 17.2725 46.7744 17.2725C50.2934 17.2725 52.6688 18.2402 53.9591 18.8267C53.5192 20.0291 53.4019 20.4103 53.2553 21.7299H52.962C52.1703 20.0584 49.6189 18.5041 46.6277 18.5041C42.0236 18.5041 38.9738 21.8766 38.9738 27.5071C38.9738 33.5775 42.7274 36.5687 46.8623 36.5687C48.182 36.5687 51.2025 36.2754 53.4899 33.5775" fill="#091011"/>
<path d="M72.5515 33.7534C72.4049 34.4279 72.2876 35.0437 72.229 36.0995C70.0882 37.3898 67.5662 38.0056 65.0149 38.0056C58.2407 38.0056 54.311 33.5775 54.311 27.5657C54.311 21.9352 57.8008 17.2725 65.4841 17.2725C69.0031 17.2725 71.3785 18.2402 72.6688 18.8267C72.229 20.0291 72.1116 20.4103 71.965 21.7299H71.6718C70.88 20.0584 68.3286 18.5041 65.3374 18.5041C60.7333 18.5041 57.6835 21.8766 57.6835 27.5071C57.6835 33.5775 61.4371 36.5687 65.572 36.5687C66.8917 36.5687 69.9122 36.2754 72.1996 33.5775" fill="#091011"/>
<path d="M89.7655 22.7274C89.2963 22.7567 88.8271 22.7567 88.3579 22.7567C87.918 22.7567 87.4488 22.7274 87.0089 22.7274L88.3872 19.5602M88.5632 17.8887C87.2728 20.8212 85.9825 23.7538 84.6335 26.6863L85.1028 26.6277L85.572 26.6863C85.7772 25.8945 86.2758 24.6335 86.7743 23.3139C87.3022 23.3139 87.8007 23.2846 88.2992 23.2846C88.8564 23.2846 89.4136 23.3139 89.9415 23.3139C90.3814 24.4283 90.9972 25.8066 91.2318 26.6863C91.4664 26.657 91.6717 26.6277 91.9063 26.6277C92.1409 26.6277 92.3462 26.657 92.5808 26.6863C91.9063 25.3374 90.0294 20.7919 88.8271 17.8887H88.5632Z" fill="#091011"/>
<path d="M93.5485 25.455C93.7244 25.8069 94.2523 26.3348 94.9561 26.3348C95.572 26.3348 96.1585 25.9535 96.1585 25.2204C96.1585 23.6661 93.1966 24.5752 93.1966 22.4638C93.1966 21.3787 93.9591 20.5576 95.2787 20.5576C95.8945 20.5576 96.2758 20.7922 96.657 20.9095C96.5104 21.1735 96.3931 21.6133 96.3638 21.7893H96.2171C96.0998 21.3787 95.6893 21.0268 95.1028 21.0268C94.6042 21.0268 94.047 21.3201 94.047 22.0825C94.047 23.7248 97.0089 22.6984 97.0089 24.8391C97.0089 25.8069 96.1585 26.8333 94.7508 26.8333C93.9884 26.8333 93.4898 26.628 93.1379 26.3934C93.2259 26.1881 93.3725 25.7189 93.3725 25.4843" fill="#091011"/>
<path d="M97.9181 25.455C98.0941 25.8069 98.6219 26.3348 99.3258 26.3348C99.9416 26.3348 100.528 25.9535 100.528 25.2204C100.528 23.6661 97.5662 24.5752 97.5662 22.4638C97.5662 21.3787 98.3287 20.5576 99.6483 20.5576C100.264 20.5576 100.645 20.7922 101.027 20.9095C100.88 21.1735 100.763 21.6133 100.733 21.7893H100.587C100.469 21.3787 100.059 21.0268 99.4724 21.0268C98.9738 21.0268 98.4167 21.3201 98.4167 22.0825C98.4167 23.7248 101.379 22.6984 101.379 24.8391C101.379 25.8069 100.499 26.8333 99.1205 26.8333C98.358 26.8333 97.8595 26.628 97.5076 26.3934C97.5955 26.1881 97.7422 25.7189 97.7422 25.4843" fill="#091011"/>
<path d="M102.933 23.6661C102.933 22.2878 103.402 20.9682 104.868 20.9682C106.334 20.9682 106.804 22.2878 106.804 23.6661C106.804 25.0738 106.334 26.3934 104.868 26.3934C103.373 26.3934 102.933 25.0738 102.933 23.6661ZM101.818 23.6661C101.818 25.9535 103.402 26.804 104.868 26.804C106.334 26.804 107.918 25.9535 107.918 23.6661C107.918 21.3787 106.334 20.5576 104.868 20.5576C103.402 20.5576 101.818 21.3787 101.818 23.6661Z" fill="#091011"/>
<path d="M111.555 20.5576C112.464 20.5576 113.255 20.8215 113.578 21.1148C113.461 21.3787 113.373 21.6427 113.314 21.9359H113.226C112.991 21.496 112.405 20.9682 111.613 20.9682C110.088 20.9682 109.502 22.1119 109.502 23.6661C109.502 25.367 110.294 26.2761 111.672 26.2761C112.346 26.2761 113.109 25.8949 113.549 25.3963L113.607 25.4257C113.578 25.6309 113.549 25.8362 113.519 26.0415C113.021 26.4521 112.2 26.804 111.437 26.804C109.971 26.804 108.387 25.9242 108.387 23.6661C108.358 21.5254 109.942 20.5576 111.555 20.5576Z" fill="#091011"/>
<path d="M114.311 18.5045C114.311 18.8564 114.604 19.1497 114.956 19.1497C115.308 19.1497 115.601 18.8564 115.601 18.5045C115.601 18.1526 115.308 17.8594 114.956 17.8594C114.604 17.8887 114.311 18.1526 114.311 18.5045ZM114.487 24.3403C114.487 25.0735 114.458 25.9532 114.399 26.6864L114.956 26.6277L115.513 26.6864C115.425 25.9532 115.425 25.1028 115.425 24.3403V23.05C115.425 22.3169 115.455 21.4078 115.513 20.7039L114.956 20.7626L114.399 20.7039C114.487 21.4078 114.487 22.2875 114.487 23.05V24.3403Z" fill="#091011"/>
<path d="M119.678 25.3963C119.384 25.8655 118.827 26.2761 118.211 26.2761C117.654 26.2761 117.126 25.8655 117.126 25.0737C117.126 23.7247 118.886 23.7834 119.736 23.5195M116.657 21.9359H116.804C117.097 21.3787 117.713 21.0855 118.387 21.0855C119.384 21.0855 119.766 21.8186 119.766 22.669C119.766 23.1676 119.707 23.2555 117.889 23.5488C116.804 23.7248 116.129 24.2526 116.129 25.2497C116.129 26.2174 116.95 26.8039 117.801 26.8039C118.651 26.8039 119.179 26.4814 119.766 25.8948C119.824 26.3347 120.088 26.6573 120.616 26.6573C120.939 26.6573 121.232 26.5693 121.408 26.4814V26.2174L121.144 26.2467C120.645 26.2467 120.645 25.7482 120.645 25.3377C120.645 24.2819 120.704 23.3435 120.704 22.4344C120.704 21.32 119.883 20.5869 118.68 20.5869C118.006 20.5869 117.419 20.7629 116.657 21.3201V21.9359Z" fill="#091011"/>
<path d="M123.109 19.0029H123.167C123.109 19.6481 123.079 20.2346 123.079 20.8504C123.255 20.8504 123.842 20.8504 124.399 20.8211V21.085V21.349C123.959 21.3196 123.373 21.3196 123.079 21.3196C123.05 21.4369 122.991 23.4018 122.991 24.4868C122.991 25.4252 123.021 26.393 124.018 26.393L124.575 26.305V26.5982C124.282 26.7155 123.93 26.8035 123.607 26.8035C122.581 26.8035 122.082 26.217 122.082 25.2199C122.082 24.3108 122.17 23.1672 122.17 21.3196C121.936 21.3196 121.642 21.3196 121.32 21.349L121.349 21.085L121.32 20.8211C121.701 20.8504 121.965 20.8504 122.141 20.8504C122.141 20.4985 122.112 19.9707 122.082 19.4428" fill="#091011"/>
<path d="M125.455 23.0206C125.455 22.2582 125.425 21.3784 125.367 20.6746L125.924 20.7333L126.481 20.6746C126.393 21.3784 126.393 22.2582 126.393 23.0206V24.311C126.393 25.0441 126.423 25.9239 126.481 26.657L125.924 26.5984L125.367 26.657C125.455 25.9239 125.455 25.0734 125.455 24.311M125.924 17.8887C126.276 17.8887 126.569 18.1526 126.569 18.5338C126.569 18.8857 126.276 19.179 125.924 19.179C125.572 19.179 125.279 18.8857 125.279 18.5338C125.279 18.1526 125.572 17.8887 125.924 17.8887Z" fill="#091011"/>
<path d="M128.211 23.6661C128.211 22.2878 128.681 20.9682 130.147 20.9682C131.613 20.9682 132.082 22.2878 132.082 23.6661C132.082 25.0738 131.613 26.3934 130.147 26.3934C128.651 26.3934 128.211 25.0738 128.211 23.6661ZM127.097 23.6661C127.097 25.9535 128.681 26.804 130.147 26.804C131.584 26.804 133.197 25.9535 133.197 23.6661C133.197 21.3787 131.613 20.5576 130.147 20.5576C128.681 20.5576 127.097 21.3787 127.097 23.6661Z" fill="#091011"/>
<path d="M136.657 21.2321C135.484 21.2321 134.956 21.9652 134.956 23.2849V24.3406C134.956 25.0737 134.985 25.9535 135.044 26.6866L134.487 26.628L133.93 26.6866C134.018 25.9535 134.018 25.103 134.018 24.3406V23.0503C134.018 22.2878 133.988 21.408 133.93 20.7042L134.487 20.7629L134.985 20.7042C134.956 21.0561 134.956 21.3787 134.956 21.7013H134.985C135.455 20.9681 136.1 20.5869 136.98 20.5869C137.918 20.5869 138.974 21.0268 138.974 22.757C138.974 23.4901 138.915 24.2233 138.915 25.0737C138.915 25.6309 138.915 26.1294 138.944 26.6866L138.446 26.5987L137.947 26.6573C137.977 25.7482 138.035 24.8391 138.035 23.8714V23.1089C138.035 21.8772 137.478 21.2321 136.657 21.2321Z" fill="#091011"/>
<path d="M144.956 23.6661C144.956 22.2878 145.425 20.9682 146.892 20.9682C148.358 20.9682 148.827 22.2878 148.827 23.6661C148.827 25.0738 148.358 26.3934 146.892 26.3934C145.425 26.3934 144.956 25.0738 144.956 23.6661ZM143.871 23.6661C143.871 25.9535 145.455 26.804 146.921 26.804C148.387 26.804 149.971 25.9535 149.971 23.6661C149.971 21.3787 148.387 20.5576 146.921 20.5576C145.455 20.5576 143.871 21.3787 143.871 23.6661Z" fill="#091011"/>
<path d="M153.49 18.2403C153.285 18.123 153.05 18.0351 152.815 18.0351C152.082 18.0351 151.789 18.6216 151.789 19.2961C151.789 19.5893 151.877 20.2345 151.936 20.733C152.376 20.733 152.786 20.733 153.226 20.733L153.197 20.9969L153.226 21.2316C152.815 21.2316 152.376 21.2022 151.936 21.2022C151.936 23.0204 151.936 24.8093 151.994 26.6568L151.466 26.5981L150.909 26.6568C151.027 24.8093 151.027 23.0204 151.027 21.2022C150.733 21.2022 150.44 21.2316 150.117 21.2316L150.147 20.9969L150.117 20.733C150.411 20.733 150.733 20.733 151.027 20.733C151.027 19.7653 151.466 18.3576 152.112 17.7125C152.405 17.4192 152.903 17.126 153.373 17.126L153.636 17.1553C153.636 17.5072 153.578 17.8298 153.578 18.1524" fill="#091011"/>
<path d="M92.1115 36.1585C91.7889 36.3931 90.7625 36.8623 89.5015 36.8623C86.8622 36.8623 84.9268 35.22 84.9268 32.4048C84.9268 29.5602 86.8622 27.918 89.6188 27.918C90.7039 27.918 91.6716 28.1819 92.3461 28.5045C92.2288 28.7391 92.1408 29.2376 92.0822 29.4722L91.9942 29.5015C91.6423 29.1203 90.7919 28.3872 89.6188 28.3872C87.654 28.3872 86.1584 29.6188 86.1584 32.4048C86.1584 35.1614 87.654 36.3931 89.6188 36.3931C90.8212 36.3931 91.6716 35.7186 92.1702 35.3667L92.2288 35.396" fill="#091011"/>
<path d="M93.9298 33.7247C93.9298 32.3171 94.399 30.9974 95.8653 30.9974C97.3315 30.9974 97.8007 32.3171 97.8007 33.7247C97.8007 35.1323 97.3315 36.4227 95.8653 36.4227C94.399 36.4227 93.9298 35.1323 93.9298 33.7247ZM92.8447 33.7247C92.8447 36.0121 94.4283 36.8332 95.8946 36.8332C97.3609 36.8332 98.9444 36.0121 98.9444 33.7247C98.9444 31.4373 97.3609 30.6162 95.8946 30.6162C94.4283 30.6162 92.8447 31.4373 92.8447 33.7247Z" fill="#091011"/>
<path d="M102.669 31.7599C102.581 31.6426 102.317 31.5546 102.053 31.5546C101.261 31.5546 100.792 32.3171 100.792 33.3142C100.792 35.4842 100.792 36.1587 100.851 36.7159L100.352 36.6866L99.8242 36.7159C99.8829 36.1294 99.8829 35.1323 99.8829 33.7247V33.3142C99.8829 32.669 99.8829 31.7892 99.8242 30.7335L100.352 30.7628L100.851 30.7335C100.792 31.32 100.792 31.6133 100.792 31.9359L100.821 31.9652C101.291 31.0854 101.906 30.6162 102.464 30.6162L102.874 30.6749C102.786 30.8801 102.786 31.3493 102.786 31.7013" fill="#091011"/>
<path d="M108.094 33.6661C108.094 35.191 107.537 36.364 106.335 36.364C105.132 36.364 104.516 35.4843 104.516 33.7541C104.516 32.3171 105.015 31.1148 106.393 31.1148C107.185 31.1148 108.094 31.672 108.094 33.6661ZM103.578 36.3934C103.578 37.5371 103.549 39.15 103.49 40.0004L104.047 39.9418L104.604 40.0004C104.516 39.1793 104.516 37.5664 104.516 36.3934V35.6016H104.546C104.927 36.3934 105.601 36.8039 106.511 36.8039C107.83 36.8039 109.208 35.7775 109.208 33.6661C109.208 31.5253 107.918 30.5869 106.657 30.5869C105.396 30.5869 104.78 31.408 104.546 31.9359H104.516C104.516 31.5253 104.546 31.1441 104.604 30.7335L104.047 30.7629L103.49 30.7335C103.578 31.6133 103.578 33.1969 103.578 34.3699V36.3934Z" fill="#091011"/>
<path d="M110.909 33.7247C110.909 32.3171 111.379 30.9974 112.845 30.9974C114.311 30.9974 114.78 32.3171 114.78 33.7247C114.78 35.1323 114.311 36.4227 112.845 36.4227C111.379 36.4227 110.909 35.1323 110.909 33.7247ZM109.795 33.7247C109.795 36.0121 111.379 36.8332 112.845 36.8332C114.311 36.8332 115.895 36.0121 115.895 33.7247C115.895 31.4373 114.311 30.6162 112.845 30.6162C111.379 30.6162 109.795 31.4373 109.795 33.7247Z" fill="#091011"/>
<path d="M119.472 31.7013C119.472 31.3493 119.472 30.8801 119.56 30.6749L119.15 30.6162C118.563 30.6162 117.977 31.0561 117.508 31.9652L117.478 31.9359C117.478 31.6426 117.478 31.3493 117.537 30.7335L117.038 30.7922L116.51 30.7335C116.569 31.8186 116.569 32.6983 116.569 33.3435V33.754C116.569 35.1617 116.569 36.1294 116.51 36.7452L117.038 36.6866L117.537 36.7452C117.478 36.1587 117.478 35.5136 117.478 33.3435C117.478 32.3757 117.947 31.584 118.739 31.584C118.974 31.584 119.267 31.7013 119.355 31.7892" fill="#091011"/>
<path d="M123.197 35.4256C122.903 35.8948 122.376 36.3054 121.73 36.3054C121.173 36.3054 120.645 35.8948 120.645 35.103C120.645 33.754 122.405 33.8127 123.255 33.5194M120.147 31.9652H120.293C120.587 31.4373 121.202 31.1147 121.877 31.1147C122.874 31.1147 123.255 31.8479 123.255 32.6983C123.255 33.1969 123.197 33.2848 121.378 33.5781C120.293 33.754 119.619 34.2819 119.619 35.279C119.619 36.2467 120.44 36.8039 121.29 36.8039C122.141 36.8039 122.669 36.5106 123.255 35.8948C123.314 36.3347 123.578 36.6866 124.106 36.6866C124.428 36.6866 124.722 36.5693 124.897 36.5106V36.2467L124.634 36.276C124.164 36.276 124.164 35.7775 124.164 35.3669C124.164 34.3112 124.223 33.3728 124.223 32.4637C124.223 31.3493 123.402 30.6162 122.2 30.6162C121.525 30.6162 120.939 30.7628 120.176 31.3493V31.9652H120.147Z" fill="#091011"/>
<path d="M126.598 29.0615H126.657C126.598 29.6774 126.569 30.2932 126.569 30.909C126.745 30.909 127.332 30.8797 127.889 30.8797L127.859 31.1436L127.889 31.4076C127.449 31.3782 126.862 31.3782 126.569 31.3782C126.54 31.4955 126.481 33.4897 126.481 34.5747C126.481 35.5132 126.51 36.4809 127.508 36.4809L128.065 36.3636V36.6862C127.771 36.7741 127.42 36.8621 127.097 36.8621C126.071 36.8621 125.572 36.2756 125.572 35.3079C125.572 34.3988 125.66 33.2551 125.66 31.3782C125.425 31.3782 125.132 31.3782 124.81 31.4076L124.839 31.1143L124.81 30.8504C125.191 30.8797 125.455 30.8797 125.631 30.8797C125.601 30.5571 125.601 30.0293 125.572 29.4721" fill="#091011"/>
<path d="M131.027 30.9969C132.317 30.9969 132.551 32.2873 132.551 33.167C132.024 33.1964 131.437 33.1964 130.88 33.1964C130.352 33.1964 129.766 33.167 129.267 33.167C129.326 32.2579 129.795 30.9969 131.027 30.9969ZM128.123 33.9002C128.123 35.5717 129.355 36.8327 131.173 36.8327C131.936 36.8327 132.757 36.4808 133.255 36.0996L133.343 35.4837L133.285 35.4544C132.845 35.953 132.082 36.3342 131.408 36.3342C130.029 36.3342 129.238 35.3078 129.238 34.0175V33.6656C129.795 33.6656 130.323 33.6362 130.88 33.6362C131.76 33.6362 132.669 33.6656 133.549 33.6656L133.578 33.1964C133.578 31.7887 132.727 30.645 130.997 30.645C129.15 30.6157 128.123 31.8767 128.123 33.9002Z" fill="#091011"/>
<path d="M145.132 36.1585C144.81 36.3931 143.783 36.8623 142.522 36.8623C139.883 36.8623 137.948 35.22 137.948 32.4048C137.948 29.5602 139.883 27.918 142.64 27.918C143.725 27.918 144.692 28.1819 145.367 28.5045C145.25 28.7391 145.162 29.2376 145.103 29.4722L145.015 29.5015C144.663 29.1203 143.813 28.3872 142.64 28.3872C140.675 28.3872 139.179 29.6188 139.179 32.4048C139.179 35.1614 140.675 36.3931 142.64 36.3931C143.842 36.3931 144.692 35.7186 145.191 35.3667L145.25 35.396" fill="#091011"/>
<path d="M146.804 33.7247C146.804 32.3171 147.273 30.9974 148.739 30.9974C150.206 30.9974 150.675 32.3171 150.675 33.7247C150.675 35.1323 150.206 36.4227 148.739 36.4227C147.273 36.4227 146.804 35.1323 146.804 33.7247ZM145.719 33.7247C145.719 36.0121 147.302 36.8332 148.769 36.8332C150.235 36.8332 151.818 36.0121 151.818 33.7247C151.818 31.4373 150.235 30.6162 148.769 30.6162C147.302 30.6162 145.719 31.4373 145.719 33.7247Z" fill="#091011"/>
<path d="M152.698 32.7276C152.698 32.1411 152.698 31.4372 152.669 30.7334L153.197 30.7628L153.725 30.7334C153.637 31.7012 153.607 32.9622 153.607 34.1938C153.607 35.0443 153.783 35.4842 153.989 35.7188C154.223 35.9827 154.575 36.188 155.074 36.188C155.777 36.188 156.247 35.8361 156.452 35.3669C156.687 34.839 156.716 34.7217 156.716 32.7569C156.716 32.0824 156.716 31.3199 156.687 30.7041L157.214 30.7334L157.742 30.7041C157.654 31.9944 157.654 33.1674 157.654 34.4871C157.654 35.2202 157.654 35.9534 157.713 36.6572L157.214 36.6279L156.716 36.6572C156.745 36.3053 156.745 35.9241 156.745 35.6015H156.716C156.276 36.3639 155.543 36.8038 154.751 36.8038C153.461 36.8038 152.669 36.0707 152.669 34.751C152.669 33.9006 152.698 33.3434 152.698 32.7276Z" fill="#091011"/>
<path d="M161.349 31.2614C160.176 31.2614 159.648 31.9945 159.648 33.3142V34.3699C159.648 35.103 159.678 35.9828 159.736 36.6866L159.179 36.6573L158.622 36.6866C158.71 35.9828 158.71 35.103 158.71 34.3699V33.0502C158.71 32.3171 158.681 31.4373 158.622 30.7335L159.179 30.7628L159.678 30.7335C159.648 31.0561 159.648 31.408 159.648 31.7306H159.678C160.147 30.9974 160.792 30.6162 161.672 30.6162C162.61 30.6162 163.666 31.0561 163.666 32.7863C163.666 33.4901 163.607 34.2526 163.607 35.103C163.607 35.6602 163.607 36.1587 163.637 36.6866L163.109 36.6573L162.61 36.6866C162.64 35.8068 162.698 34.8684 162.698 33.9007V33.1675C162.728 31.9359 162.17 31.2614 161.349 31.2614Z" fill="#091011"/>
<path d="M164.663 35.5136C164.839 35.8655 165.367 36.3933 166.071 36.3933C166.686 36.3933 167.273 35.9828 167.273 35.279C167.273 33.7247 164.311 34.6338 164.311 32.5224C164.311 31.4373 165.074 30.6455 166.393 30.6455C167.009 30.6455 167.39 30.8508 167.771 30.9974C167.625 31.232 167.508 31.7012 167.478 31.8772H167.332C167.214 31.4666 166.804 31.0854 166.247 31.0854C165.748 31.0854 165.191 31.408 165.191 32.1411C165.191 33.754 168.153 32.757 168.153 34.8684C168.153 35.8361 167.273 36.8625 165.895 36.8625C165.132 36.8625 164.634 36.6573 164.282 36.452C164.37 36.2467 164.516 35.7775 164.516 35.5429" fill="#091011"/>
<path d="M171.466 30.9969C172.757 30.9969 172.991 32.2873 172.991 33.167C172.464 33.1964 171.877 33.1964 171.32 33.1964C170.792 33.1964 170.205 33.167 169.678 33.167C169.766 32.2579 170.235 30.9969 171.466 30.9969ZM168.563 33.9002C168.563 35.5717 169.795 36.8327 171.613 36.8327C172.376 36.8327 173.197 36.4808 173.695 36.0996L173.783 35.4837L173.725 35.4544C173.285 35.953 172.522 36.3342 171.848 36.3342C170.469 36.3342 169.678 35.3078 169.678 34.0175V33.6656C170.235 33.6656 170.763 33.6362 171.32 33.6362C172.2 33.6362 173.109 33.6656 173.988 33.6656L174.018 33.1964C174.018 31.7887 173.167 30.645 171.437 30.645C169.59 30.6157 168.563 31.8767 168.563 33.9002Z" fill="#091011"/>
<path d="M174.927 30.8502C174.927 29.7065 174.898 28.0936 174.839 27.2432L175.396 27.3018L175.953 27.2432C175.865 28.0643 175.865 29.6772 175.865 30.8502V33.1083C175.865 34.252 175.895 35.8649 175.953 36.7153L175.396 36.686L174.839 36.7153C174.927 35.8942 174.927 34.2813 174.927 33.1083" fill="#091011"/>
<path d="M18.5631 0H17.5074C11.7889 12.6686 5.98241 25.1907 0 37.7713C0.733139 37.5954 1.40763 37.5074 2.08211 37.5074C2.7566 37.5074 3.43109 37.6247 4.16423 37.7713C5.10265 34.3989 7.24341 28.8857 9.58946 23.3431H9.61878L16.7742 7.21409L20.9971 16.5689C22.2581 15.7478 23.5777 14.9267 24.9267 14.1642C22.4927 8.70969 20.5865 4.60411 18.5631 0Z" fill="#091011"/>
<path d="M47.6247 8.00602C39.4428 9.50162 31.9062 12.3169 25.1613 16.1585C23.8123 16.921 22.522 17.7421 21.2317 18.5925C16.393 21.8184 12.0234 25.572 8.26978 29.7949C12.4633 26.4811 17.0674 23.2553 22.0235 20.4107C23.3431 19.6483 24.6921 18.9151 26.0411 18.2113C32.8739 14.7216 40.2933 11.965 48.2405 10.528C63.7537 7.71277 78.9444 10.3521 92.1115 14.6043C79.2083 7.83007 63.6071 5.13212 47.6247 8.00602Z" fill="#091011"/>
</svg>
