<svg width="68" height="42" viewBox="0 0 68 42" fill="none" xmlns="http://www.w3.org/2000/svg">
<path d="M15.4623 41.647C12.9759 41.647 10.7809 41.0189 8.87723 39.7628C6.97358 38.4937 5.48433 36.7066 4.40948 34.4015C3.33463 32.0834 2.7972 29.3445 2.7972 26.1847C2.7972 23.0508 3.33463 20.3313 4.40948 18.0262C5.48433 15.7211 6.98006 13.9404 8.89666 12.6843C10.8133 11.4281 13.0277 10.8001 15.54 10.8001C17.4825 10.8001 19.0171 11.1238 20.1437 11.7713C21.2833 12.4059 22.151 13.1311 22.7467 13.9469C23.3553 14.7498 23.828 15.4103 24.1647 15.9283H24.5532V1.24295H29.1375V41.0254H24.7086V36.4411H24.1647C23.828 36.985 23.3489 37.6713 22.7273 38.5001C22.1057 39.316 21.2186 40.0477 20.066 40.6952C18.9135 41.3297 17.3789 41.647 15.4623 41.647ZM16.0839 37.5289C17.9228 37.5289 19.4768 37.0497 20.7459 36.0914C22.015 35.1202 22.9798 33.7799 23.6402 32.0705C24.3007 30.3481 24.6309 28.3603 24.6309 26.107C24.6309 23.8796 24.3072 21.9306 23.6597 20.26C23.0122 18.5765 22.0539 17.2686 20.7848 16.3362C19.5157 15.3908 17.9487 14.9182 16.0839 14.9182C14.1414 14.9182 12.5227 15.4167 11.2277 16.4139C9.94561 17.3981 8.98083 18.7384 8.33333 20.4349C7.69878 22.1184 7.38151 24.0091 7.38151 26.107C7.38151 28.2308 7.70526 30.1603 8.35276 31.8956C9.01321 33.618 9.98446 34.9907 11.2665 36.0137C12.5615 37.0238 14.1673 37.5289 16.0839 37.5289ZM38.1702 41.0254V11.1886H42.5991V15.6952H42.9099C43.4538 14.2189 44.438 13.021 45.8625 12.1015C47.287 11.1821 48.8928 10.7224 50.6799 10.7224C51.0166 10.7224 51.4374 10.7288 51.9425 10.7418C52.4475 10.7547 52.8296 10.7742 53.0886 10.8001V15.4621C52.9332 15.4232 52.577 15.3649 52.0202 15.2872C51.4763 15.1966 50.9 15.1513 50.2914 15.1513C48.841 15.1513 47.546 15.4556 46.4064 16.0642C45.2797 16.6599 44.3862 17.4887 43.7257 18.5506C43.0782 19.5996 42.7545 20.7975 42.7545 22.1443V41.0254H38.1702ZM58.5227 41.0254V11.1886H63.107V41.0254H58.5227ZM60.8537 6.21576C59.9602 6.21576 59.1896 5.91144 58.5421 5.30278C57.9076 4.69413 57.5903 3.96246 57.5903 3.10776C57.5903 2.25306 57.9076 1.52138 58.5421 0.912729C59.1896 0.30408 59.9602 -0.000245094 60.8537 -0.000245094C61.7473 -0.000245094 62.5113 0.30408 63.1459 0.912729C63.7934 1.52138 64.1171 2.25306 64.1171 3.10776C64.1171 3.96246 63.7934 4.69413 63.1459 5.30278C62.5113 5.91144 61.7473 6.21576 60.8537 6.21576Z" fill="#091011"/>
</svg>
