<svg width="160" height="40" viewBox="0 0 160 40" fill="none" xmlns="http://www.w3.org/2000/svg">
<g clip-path="url(#clip0_3711_16)">
<path d="M90.3823 13.0382C90.3823 8.37022 90.4628 4.02414 90.7042 0L78.3903 2.334V3.46076L79.5976 3.62173C80.4829 3.70221 81.0463 4.02414 81.3682 4.50704C81.6901 5.07042 81.9316 5.87525 82.0926 7.08249C82.2535 9.4165 82.4145 14.7284 82.334 23.0986C82.334 31.3883 82.2535 36.6197 82.0926 38.6318C86.5191 39.5976 89.9799 40 92.5553 40C97.3843 40 101.167 38.6318 103.903 35.8149C106.64 33.0785 108.089 29.2153 108.089 24.4668C108.089 20.6841 107.042 17.5453 104.95 15.0503C102.857 12.5553 100.201 11.3481 97.0624 11.3481C94.9698 11.3481 92.7968 11.9115 90.3823 13.0382ZM90.6237 37.827C90.4628 35.2515 90.3018 27.5251 90.3018 14.8893C91.0262 14.6479 91.992 14.4869 93.1992 14.4869C95.1308 14.4869 96.66 15.4527 97.7867 17.4648C98.9135 19.4769 99.4769 21.8913 99.4769 24.9497C99.4769 28.7324 98.833 31.7907 97.5453 34.3662C96.2575 36.8612 94.6479 38.1489 92.6358 38.1489C91.9919 37.9879 91.3481 37.9074 90.6237 37.827ZM32.1932 0.804829H0V2.41449L1.69014 2.57545C2.97787 2.8169 3.86318 3.2998 4.42656 4.02414C4.98994 4.82897 5.31187 6.1167 5.39235 7.88732C6.03622 16.5795 6.03622 24.7082 5.39235 32.1932C5.23139 33.9638 4.90946 35.2515 4.42656 36.0563C3.86318 36.8612 2.97787 37.3441 1.69014 37.505L0 37.7465V39.3561H20.7646V37.7465L18.5915 37.5855C17.3038 37.4245 16.4185 36.8612 15.8551 36.1368C15.2918 35.332 14.9698 34.0443 14.8893 32.2736C14.6479 29.0543 14.4869 25.3521 14.4869 21.2475L18.833 21.328C21.167 21.4084 22.7767 23.1791 23.5815 26.7203H25.1911V13.6016H23.5815C22.7767 17.0624 21.2475 18.833 18.833 18.9135L14.4869 18.994C14.4869 11.7505 14.6479 6.5996 14.8893 3.46076H21.2475C25.7545 3.46076 28.8129 6.35815 30.5835 12.1529L32.5151 11.5895L32.1932 0.804829ZM28.4105 25.5936C28.4105 29.7787 29.6177 33.2394 31.9517 35.9759C34.2857 38.7123 37.7465 40 42.0926 40C46.4386 40 49.9799 38.6318 52.5553 35.8149C55.1308 33.0785 56.338 29.6177 56.338 25.4326C56.338 21.2475 55.1308 17.7867 52.7968 15.0503C50.4628 12.3139 47.002 11.0262 42.6559 11.0262C38.3099 11.0262 34.7686 12.3944 32.1932 15.2113C29.6177 17.9477 28.4105 21.4084 28.4105 25.5936ZM46.3581 16.4185C47.3239 18.7525 47.7264 21.8109 47.7264 25.5131C47.7264 34.0443 45.9557 38.2294 42.495 38.2294C40.7243 38.2294 39.3561 37.0221 38.3903 34.6076C37.4245 32.1932 37.0221 29.1348 37.0221 25.5131C37.0221 17.0624 38.7928 12.8773 42.2535 12.8773C44.0241 12.7968 45.3924 14.004 46.3581 16.4185ZM114.366 35.9759C117.022 38.6318 120.402 40 124.427 40C126.922 40 129.095 39.5171 131.026 38.4708C132.958 37.505 134.487 36.2978 135.533 34.8491L134.728 33.8833C132.958 35.2515 130.946 35.8954 128.612 35.8954C125.392 35.8954 122.897 34.8491 121.207 32.6761C119.437 30.503 118.632 27.7666 118.793 24.2254H136.016C136.016 20.3622 135.05 17.2233 133.038 14.7284C131.026 12.3139 128.209 11.1066 124.588 11.1066C120.08 11.1066 116.62 12.5553 114.125 15.3722C111.63 18.1891 110.423 21.6499 110.423 25.7545C110.423 29.9396 111.71 33.3199 114.366 35.9759ZM120.322 15.7746C121.207 13.8431 122.334 12.8773 123.863 12.8773C126.278 12.8773 127.485 15.9356 127.485 22.1328L118.954 22.2938C119.034 19.8793 119.437 17.7062 120.322 15.7746ZM157.666 12.5553C155.493 11.5895 152.757 11.0262 149.457 11.0262C146.076 11.0262 143.421 11.9115 141.408 13.6016C139.396 15.2917 138.35 17.3843 138.35 19.8793C138.35 22.0523 138.994 23.7425 140.201 24.9497C141.408 26.1569 143.34 27.2032 145.835 28.0885C148.089 28.8934 149.698 29.6982 150.503 30.4225C151.308 31.2274 151.791 32.1127 151.791 33.3199C151.791 34.4467 151.388 35.493 150.503 36.2978C149.698 37.1831 148.571 37.5855 147.123 37.5855C143.581 37.5855 140.926 35.0101 139.074 29.8592L137.706 30.2616L138.028 38.3099C140.926 39.4366 144.145 40 147.686 40C151.388 40 154.205 39.1952 156.298 37.505C158.39 35.8954 159.437 33.5614 159.437 30.664C159.437 28.7324 158.954 27.1227 157.907 25.9155C156.861 24.7082 155.171 23.662 152.757 22.6962C150.101 21.7304 148.249 20.8451 147.284 20.0402C146.318 19.2354 145.835 18.2696 145.835 17.0624C145.835 15.8551 146.157 14.8893 146.881 14.0845C147.606 13.2797 148.491 12.9577 149.618 12.9577C152.837 12.9577 155.171 15.2918 156.62 19.8793L157.988 19.4769L157.666 12.5553ZM80.2414 11.831C79.1147 11.2676 77.9074 11.0262 76.5392 11.0262C75.171 11.0262 73.8028 11.5895 72.2736 12.7163C70.7445 13.8431 69.6177 15.3722 68.7324 17.4648L68.8129 11.0262L56.5795 13.4406V14.5674L57.7867 14.6479C59.3159 14.8089 60.2012 16.0161 60.3622 18.1891C60.8451 23.1791 60.8451 28.4909 60.3622 34.1247C60.2012 36.2978 59.3159 37.4245 57.7867 37.666L56.5795 37.827V39.3561H73.6418V37.827L71.4688 37.666C69.9396 37.505 69.0543 36.2978 68.8934 34.1247C68.4105 29.4567 68.33 24.4668 68.7324 19.3159C69.2153 18.5111 70.2616 18.0282 71.8712 17.8672C73.4809 17.7062 75.332 18.1891 77.2636 19.3159L80.2414 11.831Z" fill="#091011"/>
</g>
<defs>
<clipPath id="clip0_3711_16">
<rect width="159.437" height="40" fill="white"/>
</clipPath>
</defs>
</svg>
