<svg width="41" height="40" viewBox="0 0 41 40" fill="none" xmlns="http://www.w3.org/2000/svg">
<g clip-path="url(#clip0_3714_149)">
<path d="M20.4852 1.83855e-05L19.8663 0.00178339L18.8108 2.73752L19.3779 2.73576L19.615 2.10861L20.7229 2.10567L20.96 2.73048L21.5659 2.7293L20.4852 1.83855e-05ZM23.1992 0.176519L23.118 0.599532L23.8869 0.747204L23.4522 3.00759L23.9905 3.11113L24.4253 0.850751L25.1942 0.999011L25.2754 0.575998L23.1992 0.176519ZM16.5222 0.312424L16.0133 0.43774L16.501 2.42159L16.4933 2.42335L14.9942 0.687782L14.3406 0.848986L14.9931 3.50238L15.5026 3.37706L15.0148 1.39261L15.0225 1.39084L16.5251 3.12525L17.1752 2.96523L16.5222 0.312424ZM20.1616 0.548935H20.1699L20.5687 1.67501L19.7704 1.67795L20.1616 0.548935ZM27.3323 1.2314L26.3563 3.78301L26.8681 3.97893L27.8436 1.42675L27.3323 1.2314ZM11.7655 1.99977C11.4774 2.00068 11.1538 2.17204 10.8595 2.32161L10.3329 2.5893L11.5708 5.02499L12.0591 4.77671L11.5455 3.76477L11.702 3.68474C11.908 3.57991 12.0061 3.61797 12.168 3.76417L12.8481 4.37604L13.3923 4.09893L12.5174 3.34468C12.4138 3.26155 12.2696 3.16822 12.1315 3.22525L12.1279 3.21819C12.4175 3.01818 12.4881 2.68342 12.3427 2.39747C12.1921 2.10139 11.9896 1.99905 11.7655 1.99977ZM11.5519 2.51396C11.6723 2.50658 11.7804 2.55151 11.8549 2.6981C12.0092 3.00174 11.7512 3.17671 11.5102 3.29879L11.3502 3.38116L11.0166 2.72458L11.1772 2.64339C11.2993 2.58134 11.4316 2.52134 11.5519 2.51396ZM30.4353 2.83989C29.9858 2.82771 29.5815 3.083 29.2839 3.54531C28.8305 4.24979 28.9036 4.98972 29.641 5.46446C30.3684 5.93235 31.0884 5.68862 31.5355 4.99379C31.9825 4.29937 31.891 3.55149 31.1701 3.0876C30.919 2.92607 30.6708 2.84628 30.4353 2.83989ZM30.5559 3.33056C30.6799 3.3309 30.8085 3.36719 30.9371 3.45C31.3946 3.7444 31.3155 4.28006 31.0548 4.68491C30.7881 5.09979 30.3443 5.40486 29.874 5.10204C29.4033 4.79922 29.4975 4.26909 29.7646 3.85418C29.9516 3.5632 30.2391 3.32972 30.5559 3.33056ZM8.2985 3.91419L7.04063 4.92319L8.74917 7.05529L10.0135 6.04161L9.74464 5.70508L8.90744 6.37636L8.42794 5.77743L9.18866 5.16793L8.91862 4.832L8.1585 5.4421L7.73726 4.91673L8.56799 4.25076L8.2985 3.91419ZM34.1498 5.47267L32.1366 7.31948L32.4913 7.70662L33.9968 6.32521L34.0021 6.3305L33.2032 8.48206L33.6556 8.97507L35.6689 7.12829L35.3142 6.74175L33.8086 8.12314L33.8039 8.11726L34.6047 5.96866L34.1498 5.47267ZM5.41786 6.46872L4.05586 8.08486L4.38474 8.36197L4.88954 7.76365L6.64925 9.24743L7.00226 8.82795L5.24254 7.34476L5.74734 6.74644L5.41786 6.46872ZM20.2108 6.62993C17.0624 6.63585 13.9158 7.72564 11.3882 9.89945C13.4586 8.71021 16.8 9.28173 20.2485 11.2473C23.6617 9.30221 26.9689 8.7225 29.044 9.86355C26.5095 7.70194 23.3593 6.6239 20.2108 6.62993ZM9.46063 8.45316C9.255 8.45311 9.04952 8.53091 8.89288 8.68614C8.5784 8.9974 8.5778 9.50194 8.89229 9.8128C9.20638 10.1241 9.71606 10.1245 10.0301 9.8128C10.3434 9.50233 10.343 8.99701 10.0289 8.68614C9.8719 8.53071 9.66625 8.45321 9.46063 8.45316ZM37.5447 9.93165L34.636 10.3005L34.9066 10.7989L35.5708 10.71L36.0998 11.6831L35.6614 12.1885L35.9515 12.7215L37.84 10.4753L37.5447 9.93165ZM2.79507 9.93282L2.54797 10.3953L4.35121 11.3566L4.34709 11.3637L2.05493 11.3213L1.73783 11.9155L4.14882 13.2005L4.39534 12.738L2.59267 11.7767L2.5962 11.7696L4.89128 11.8085L5.20604 11.2183L2.79507 9.93282ZM28.6223 10.1252C27.214 10.1105 25.035 11.0868 22.5854 12.7862C23.4911 13.4654 24.3861 14.2341 25.2488 15.0884C26.1111 15.9431 26.8875 16.83 27.5727 17.7277C29.7653 14.625 30.7645 11.961 30.0078 10.7699C29.9372 10.6968 29.8693 10.6216 29.7966 10.5493C29.7364 10.4899 29.6737 10.4346 29.6131 10.3763C29.3505 10.211 29.0167 10.1293 28.6223 10.1252ZM11.8741 10.1299C11.4052 10.1359 11.0223 10.2521 10.7433 10.4882C10.722 10.5091 10.6997 10.5279 10.678 10.5488C10.6515 10.5757 10.627 10.6035 10.6009 10.63C9.65346 11.7385 10.637 14.4923 12.9231 17.7272C13.6087 16.8299 14.3843 15.9432 15.247 15.0885C16.1097 14.2338 17.0043 13.4651 17.9104 12.7864C15.4587 11.0853 13.2808 10.1119 11.8741 10.1299ZM37.2037 10.4511L37.2072 10.4582L36.4053 11.3436L36.0241 10.6417L37.2037 10.4511ZM10.0037 11.2737C5.648 16.2665 5.62902 23.6848 9.94491 28.7003C8.83558 26.6411 9.42472 23.3944 11.3699 20.0436C9.38939 16.6322 8.81089 13.325 10.0037 11.2737ZM30.5285 11.3413C31.6716 13.3977 31.0859 16.6685 29.1259 20.0435C31.0538 23.3642 31.6482 26.5816 30.5791 28.6432C34.8273 23.6516 34.8107 16.314 30.5285 11.3413ZM39.1493 13.5546L36.5271 14.3236L36.9801 15.8674L37.3931 15.7468L37.0948 14.7283L39.3034 14.0806L39.1493 13.5546ZM0.866312 14.2053L0.703932 14.7284L3.3132 15.5385L3.47557 15.0149L0.866312 14.2053ZM20.2479 14.5637C19.2928 15.3529 18.3219 16.2291 17.3604 17.1818C16.3984 18.1348 15.514 19.0967 14.7176 20.0434C15.514 20.9897 16.3988 21.952 17.3604 22.9051C18.3223 23.8578 19.2928 24.7343 20.2479 25.5232C21.203 24.7343 22.1745 23.8578 23.136 22.9051C24.0975 21.952 24.9818 20.9897 25.7782 20.0434C24.9818 19.0967 24.0975 18.1348 23.136 17.1818C22.1745 16.2291 21.203 15.3529 20.2479 14.5637ZM38.6592 17.4583C38.1427 17.4583 37.7226 17.8778 37.7226 18.4031C37.7226 18.9361 38.1427 19.3521 38.6592 19.3521C39.1801 19.3521 39.5917 18.9361 39.5917 18.4031C39.5917 17.8778 39.1804 17.4583 38.6639 17.4583H38.6592ZM38.6592 17.6048H38.6639C39.0836 17.6048 39.4199 17.9622 39.4199 18.4073C39.4199 18.8527 39.0837 19.2091 38.6639 19.205C38.2438 19.205 37.9032 18.8526 37.9032 18.4031C37.9032 17.9621 38.2435 17.6048 38.6592 17.6048ZM38.6133 17.8736C38.4872 17.8736 38.403 17.8865 38.315 17.8989V18.9532H38.4833V18.4996H38.601C38.7351 18.4996 38.8026 18.5502 38.8275 18.6844C38.8488 18.8229 38.8734 18.9195 38.8987 18.9532H39.0752C39.0583 18.9195 39.033 18.8565 39.0081 18.6926C38.9872 18.5372 38.924 18.4535 38.8316 18.4367V18.4278C38.9449 18.3945 39.0375 18.3109 39.0375 18.1719C39.0375 18.0715 39.0037 17.9998 38.941 17.9536C38.878 17.9075 38.7728 17.8736 38.6133 17.8736ZM38.6045 18.0037C38.7937 18.0037 38.861 18.096 38.861 18.1884C38.861 18.3189 38.7431 18.3696 38.6045 18.3696H38.4833V18.0125C38.5126 18.0085 38.5499 18.0037 38.6045 18.0037ZM2.71927 20.5247L0 20.7894L0.092368 21.7402C0.125705 22.0827 0.286925 22.6887 0.972525 22.622C1.30749 22.5895 1.53224 22.3119 1.53145 21.9384L1.5391 21.9372C1.62907 22.255 1.8759 22.4514 2.19921 22.4197C2.79525 22.3618 2.8454 21.826 2.81167 21.4754L2.71927 20.5247ZM2.34391 21.1124L2.3645 21.3225C2.3886 21.5715 2.39191 21.8508 2.07622 21.8814C1.79548 21.9087 1.71806 21.6293 1.69556 21.3995L1.67379 21.1772L2.34391 21.1124ZM1.26844 21.2166L1.29374 21.4737C1.31984 21.7464 1.29321 22.0398 0.938981 22.0743C0.623295 22.1049 0.531059 21.8032 0.50657 21.5501L0.481859 21.293L1.26844 21.2166ZM37.3193 21.3636L37.2376 21.882L39.2556 22.2014L39.2538 22.2091L37.0734 22.918L36.9681 23.5828L39.6668 24.0106L39.7486 23.4922L37.73 23.1727L37.7318 23.1651L39.9133 22.452L40.018 21.7908L37.3193 21.3636ZM12.9235 22.3597C10.7575 25.425 9.76004 28.0595 10.4661 29.2708C10.5375 29.3447 10.6059 29.42 10.679 29.4931C10.7642 29.5771 10.8527 29.6564 10.9391 29.7379C12.1637 30.4339 14.8204 29.4449 17.911 27.301C17.0053 26.6218 16.1103 25.8536 15.2476 24.9988C14.3853 24.1442 13.6091 23.2573 12.9235 22.3597ZM27.5731 22.3597C26.8875 23.2573 26.1119 24.1443 25.2492 24.9989C24.3865 25.8536 23.4919 26.6219 22.5858 27.3011C25.6406 29.4206 28.2703 30.4095 29.5135 29.7597C29.6082 29.671 29.7043 29.5845 29.797 29.4921C29.8854 29.4045 29.9684 29.3139 30.0535 29.2244C30.7102 27.9938 29.7127 25.3876 27.5731 22.3597ZM0.626824 24.8083L0.818034 25.3425L1.48815 25.3561L1.86173 26.3992L1.35106 26.831L1.5558 27.4029L3.76617 25.4719L3.5579 24.8895L0.626824 24.8083ZM3.14078 25.3508L3.14313 25.3578L2.21532 26.1103L1.94586 25.3584L3.14078 25.3508ZM37.056 25.665C36.5733 25.6743 36.1588 25.9439 35.9252 26.4851C35.581 27.2828 35.9162 27.9389 36.6853 28.2707C37.4544 28.6024 38.1727 28.4096 38.5197 27.6047C38.8627 26.8103 38.5038 26.14 37.7455 25.8126C37.5085 25.7105 37.2754 25.6607 37.056 25.665ZM37.0024 26.2227C37.1737 26.2226 37.3538 26.2655 37.5196 26.3369C37.9722 26.5324 38.3467 26.9204 38.125 27.4341C37.9033 27.9482 37.3645 27.9417 36.9118 27.7465C36.4696 27.5557 36.1049 27.1554 36.3206 26.6557C36.4551 26.3437 36.7169 26.2229 37.0024 26.2227ZM4.88858 27.9112L2.57877 29.3721L2.87176 29.8351L3.83132 29.2285L3.92545 29.3774C4.04916 29.5726 4.02069 29.6741 3.89015 29.8492L3.34478 30.5828L3.67131 31.0988L4.33967 30.1569C4.41317 30.046 4.4927 29.8932 4.42322 29.7615L4.42969 29.7574C4.65581 30.0269 4.99578 30.0666 5.26689 29.8951C5.90871 29.489 5.51802 28.9077 5.20394 28.4113L4.88858 27.9112ZM4.81739 28.6049L4.91329 28.7573C5.05989 28.9886 5.20005 29.2615 4.92211 29.4374C4.63414 29.6193 4.4356 29.3784 4.2914 29.1503L4.19492 28.9985L4.81739 28.6049ZM20.2484 28.8402C16.8734 30.7641 13.6033 31.349 11.5245 30.2581C16.5369 34.456 23.9011 34.4644 28.9228 30.2822C26.8419 31.3385 23.5971 30.7488 20.2484 28.8402ZM34.4753 29.2679L34.1671 29.7209L36.4257 31.2589L36.734 30.8058L34.4753 29.2679ZM30.9989 29.7927C30.7929 29.7926 30.587 29.8703 30.43 30.0257C30.1155 30.337 30.1163 30.8415 30.43 31.1524C30.7432 31.4632 31.2527 31.4636 31.5672 31.1524C31.8813 30.8415 31.8803 30.3368 31.5678 30.0263C31.4108 29.8706 31.2048 29.7929 30.9989 29.7927ZM33.1663 31.0612L31.7072 32.5903L32.0184 32.8874L32.5591 32.3208L34.2241 33.9099L34.6024 33.5134L32.9374 31.9243L33.4781 31.3583L33.1663 31.0612ZM9.42295 33.2568L6.89312 34.7406L7.33848 35.0925L7.91446 34.7489L8.78344 35.436L8.57929 36.0732L9.05526 36.4491L9.90776 33.6404L9.42295 33.2568ZM9.31293 33.8693L9.3194 33.874L8.93052 35.0036L8.30393 34.5088L9.31293 33.8693ZM30.0205 33.9487L29.5145 34.3041L30.2153 37.1516L30.6801 36.8251L30.5147 36.175L31.4208 35.5378L31.9732 35.915L32.4698 35.5661L30.0205 33.9487ZM30.0764 34.5788L31.0483 35.2736L30.3953 35.7331L30.0699 34.5835L30.0764 34.5788ZM12.4453 35.3584C12.1785 35.3644 11.9288 35.4928 11.7681 35.8179C11.3673 36.6284 12.5362 36.9662 12.3052 37.4328C12.196 37.6541 11.8999 37.6254 11.714 37.5334C11.5212 37.4378 11.3578 37.2828 11.2345 37.1081L10.9697 37.5281C11.1822 37.7073 11.2843 37.8018 11.551 37.9335C12.0458 38.1785 12.571 38.1846 12.8365 37.6476C13.243 36.8266 12.0805 36.4748 12.2905 36.0503C12.4227 35.7836 12.6765 35.8177 12.8447 35.9008C13.0166 35.986 13.17 36.1097 13.2913 36.2526L13.5366 35.8714C13.3872 35.7236 13.204 35.5983 12.9936 35.4943C12.8182 35.4075 12.6278 35.3542 12.4453 35.3584ZM27.1512 35.6478L26.6511 35.8726L27.7701 38.3648L28.2702 38.1406L27.1512 35.6478ZM24.8314 36.5497C24.6937 36.5527 24.559 36.5714 24.4495 36.598C23.5479 36.8157 23.1155 37.4596 23.3352 38.3689C23.5521 39.2669 24.2533 39.5521 25.1132 39.3449C25.3148 39.2959 25.5148 39.2072 25.698 39.1149L25.5674 38.6754C25.4573 38.7706 25.2212 38.8754 25.012 38.926C24.4453 39.063 24.0117 38.7373 23.8812 38.1971C23.7498 37.6529 23.9911 37.1512 24.5389 37.0186C24.7293 36.9729 24.9186 36.9555 25.1479 37.021L25.0773 36.5633C24.9976 36.5523 24.914 36.548 24.8314 36.5497ZM15.9144 36.6498C15.5659 36.6544 15.2479 36.8203 15.1337 37.264C14.9084 38.1396 16.1222 38.2292 15.9921 38.7337C15.9306 38.9722 15.6352 39.0055 15.4343 38.9537C15.2259 38.8999 15.0338 38.782 14.8772 38.6366L14.7048 39.1014C14.9498 39.2335 15.0693 39.3046 15.3573 39.3785C15.8919 39.5163 16.4069 39.4142 16.5563 38.8343C16.7848 37.9471 15.5751 37.8421 15.6932 37.3835C15.7671 37.0955 16.0231 37.0764 16.2051 37.1234C16.3906 37.1712 16.5658 37.2603 16.714 37.3752L16.8752 36.9522C16.6985 36.8381 16.4942 36.7531 16.2669 36.6945C16.1503 36.6646 16.0306 36.6482 15.9144 36.6498ZM20.0199 37.1722C19.1511 37.1678 18.6776 37.7323 18.6732 38.5701C18.6688 39.4079 19.1278 39.9937 20.0046 39.9986C20.8693 40.0034 21.3463 39.411 21.3507 38.5848C21.3551 37.759 20.8774 37.177 20.0199 37.1722ZM20.0175 37.6029C20.5617 37.6061 20.7822 38.1007 20.7794 38.5819C20.777 39.0751 20.5664 39.5711 20.0069 39.5679C19.447 39.5647 19.2422 39.0668 19.245 38.5736C19.2474 38.092 19.4737 37.6001 20.0175 37.6029Z" fill="#091011"/>
</g>
<defs>
<clipPath id="clip0_3714_149">
<rect width="40.0181" height="40" fill="white"/>
</clipPath>
</defs>
</svg>
