<svg width="164" height="40" viewBox="0 0 164 40" fill="none" xmlns="http://www.w3.org/2000/svg">
<path d="M18.8152 30.3859H0V29.9051C2.92409 29.9051 3.09608 28.1026 3.09608 25.1383V6.47129C3.09608 3.507 2.92409 1.70434 0 1.70434V1.22363H9.97628V1.70434C7.05221 1.70434 6.8802 3.507 6.8802 6.47129V27.3815C6.8802 28.6233 7.26722 29.2642 8.55724 29.2642H11.5673C16.2115 29.2642 16.7081 28.383 19.3742 23.2955H19.8902L18.8152 30.3859Z" fill="#091011"/>
<path d="M38.4936 25.3388L39.2676 25.7795C37.7626 28.0227 35.1396 30.8668 30.5814 30.8668C24.8622 30.8668 21.3792 26.1801 21.3792 20.2515C21.3792 13.6019 25.9802 8.91504 31.5704 8.91504C36.2146 8.91504 39.5687 12.0396 39.2246 17.3273H25.1202C25.0772 17.8079 25.0342 18.2887 25.0342 18.8094C25.0342 24.3774 27.4424 28.6636 32.2155 28.6636C35.1396 28.6636 37.1176 26.9411 38.4936 25.3388ZM31.3984 9.95664C28.0873 9.95664 25.9802 12.6004 25.2923 16.1256H35.5266C35.8276 12.1598 34.5375 9.95664 31.3984 9.95664Z" fill="#091011"/>
<path d="M46.0212 26.0599H52.8822C57.4833 26.0599 59.9344 27.7023 59.9344 31.1473C59.9344 36.6352 53.4412 40.0001 48.5232 40.0001C43.4491 40.0001 40.7751 37.4764 40.7751 34.1916C40.7751 32.349 41.8072 31.0672 43.5273 29.8655L44.0432 29.5049H45.0753C44.0003 30.4663 43.6133 31.668 43.6133 32.9899C43.6133 36.3148 46.0721 38.2776 50.5873 38.2776C54.0002 38.2776 57.5262 36.1545 57.5262 32.9098C57.5262 30.5463 55.8923 29.0642 52.6242 29.0642H44.9462C42.5812 29.0642 41.5492 27.9026 41.5492 26.5006C41.5492 24.8582 42.7963 23.7365 45.3763 22.3745C42.8392 21.293 41.2481 19.0498 41.2481 16.0855C41.2481 11.7592 44.6883 8.91504 49.4184 8.91504C50.9234 8.91504 52.3425 9.19546 53.5035 9.71619L60.9858 9.11539L60.2118 11.3185L55.3525 10.9179C56.6856 12.1598 57.4596 13.8423 57.4596 15.9653C57.4596 20.2916 54.1056 23.1357 49.3324 23.1357C48.3004 23.1357 47.3543 23.0154 46.4514 22.7751C44.9032 23.7365 44.4732 24.2974 44.4732 24.9383C44.4732 25.5792 44.9463 26.0599 46.0212 26.0599ZM49.3754 9.95664C46.2793 9.95664 44.6883 12.2399 44.6883 16.0054C44.6883 19.7708 46.2363 22.0941 49.3754 22.0941C52.4715 22.0941 54.0196 19.7708 54.0196 16.0054C54.0196 12.2399 52.4715 9.95664 49.3754 9.95664Z" fill="#091011"/>
<path d="M79.3874 28.0227L79.9895 28.5434C79.3015 29.4649 77.8824 30.8668 75.9474 30.8668C73.9263 30.8668 73.3673 29.1845 73.2814 27.7423C71.4753 29.7052 68.4731 30.8668 66.108 30.8668C63.1838 30.8668 61.1199 28.5582 61.1199 25.9545C61.1199 22.9501 63.4419 20.7069 68.6881 19.3048L73.1093 18.2232V15.9252C73.1093 14.7636 72.7732 10.878 68.559 10.878C65.764 10.878 63.7859 12.6004 62.5389 14.8436L61.6788 14.5232C62.3669 12.3601 65.3691 8.91504 70.3573 8.91504C74.5283 8.91504 76.5494 11.5989 76.5494 15.3644V26.0198C76.5494 27.3417 76.5494 28.7438 77.8824 28.7438C78.5274 28.7438 79.0435 28.3432 79.3874 28.0227ZM68.0431 28.864C69.8061 28.864 71.9483 27.8225 73.1093 26.8611V19.3048L69.72 20.2261C66.796 21.0673 64.6029 22.1088 64.6029 24.953C64.6029 27.1161 66.0649 28.864 68.0431 28.864Z" fill="#091011"/>
<path d="M87.8351 30.386H80.5679V29.9053C82.3309 29.9053 82.4599 28.5433 82.4599 25.9796V5.36773C82.4599 2.80407 81.7289 1.96284 80.2668 1.60232V1.12163L85.599 0H85.9431V25.9796C85.9431 28.5433 86.072 29.9053 87.8351 29.9053V30.386Z" fill="#091011"/>
<path d="M95.3082 11.3077L95.6522 11.3478C105.241 12.149 109.628 15.7542 109.628 21.3623C109.628 27.1306 104.725 31.0563 97.8452 31.0563C95.3941 31.0563 92.3411 30.5757 90.793 30.0148L91.352 24.3266H92.126C92.7281 26.1292 94.4912 29.3739 98.1033 29.3739C101.371 29.3739 103.865 27.5312 103.865 24.1663C103.865 20.481 100.898 17.8373 94.4051 17.2764L92.126 17.0761L93.9751 0.93273C98.0603 1.65378 101.156 1.81401 103.306 1.81401C106.919 1.81401 107.908 1.29326 108.725 0.692383H109.499C107.607 6.42063 105.112 7.98296 100.425 7.98296C99.4362 7.98296 97.7593 7.90277 95.7382 7.66245L95.3082 11.3077Z" fill="#091011"/>
<path d="M123.994 31.0567C116.125 31.0567 111.825 25.2083 111.825 16.0751C111.825 7.10199 116.297 0.933105 124.08 0.933105C131.907 0.933105 136.249 6.78161 136.249 15.9148C136.249 24.8878 131.777 31.0567 123.994 31.0567ZM124.037 29.3743C127.305 29.3743 127.993 24.3269 127.993 15.9949C127.993 7.90315 127.262 2.61554 124.037 2.61554C120.769 2.61554 120.081 7.66283 120.081 15.9949C120.081 24.0866 120.812 29.3743 124.037 29.3743Z" fill="#091011"/>
<path d="M151.018 31.0567C143.149 31.0567 138.849 25.2083 138.849 16.0751C138.849 7.10199 143.321 0.933105 151.104 0.933105C158.93 0.933105 163.273 6.78161 163.273 15.9148C163.273 24.8878 158.801 31.0567 151.018 31.0567ZM151.061 29.3743C154.329 29.3743 155.016 24.3269 155.016 15.9949C155.016 7.90315 154.286 2.61554 151.061 2.61554C147.793 2.61554 147.104 7.66283 147.104 15.9949C147.104 24.0866 147.836 29.3743 151.061 29.3743Z" fill="#091011"/>
</svg>
