<svg width="453" height="60" viewBox="0 0 453 60" fill="none" xmlns="http://www.w3.org/2000/svg">
<g clip-path="url(#clip0_3711_10)">
<path d="M33.9 6.1C33.9 1.2 29.2 0 25.5 0V0.7C27.7 0.7 29.4 1.4 29.4 3.2C29.4 4.2 28.7 5.7 26.4 5.7C24.7 5.7 21 4.7 18.3 3.7C15.1 2.5 12.2 1.5 9.7 1.5C4.8 1.5 1.3 5.2 1.3 9.4C1.3 13.1 4 14.3 5 14.8L5.2 14.3C4.7 13.8 4 13.3 4 11.8C4 10.8 5 9.1 7.4 9.1C9.6 9.1 12.6 10.1 16.5 11.3C19.9 12.3 23.6 13 25.6 13.3V20.9L21.9 24.1V24.3L25.6 27.5V38.1C23.6 39.3 21.4 39.6 19.5 39.6C15.8 39.6 12.6 38.6 9.9 35.7L20 30.8V13.8L7.9 19.2C8.9 16 11.6 13.8 14.3 12.3L14 11.6C6.6 13.6 0 20.5 0 28.8C0 38.6 8.1 46 17.2 46C27 46 33.4 38.1 33.4 30H33C31.5 33.2 29.3 36.1 26.6 37.6V27.5L30.5 24.3V24.1L26.6 20.9V13.3C30.3 13.3 33.9 10.8 33.9 6.1ZM12.5 33.2L9.5 34.7C7.8 32.5 6.8 29.5 6.8 25.4C6.8 23.7 6.8 21.7 7.3 20.2L12.5 18V33.2ZM38.6 38.9L35.4 41.4L35.9 41.9L37.4 40.7L42.8 45.6L50.2 40.7L50 40.2L48 41.4L45.5 38.9V22.1L47.5 20.6L51.7 24V39C51.7 48.3 49.7 49.8 45.6 51.3V52C52.5 52.2 58.9 50 58.9 38V21.9L61.1 20.2L60.6 19.7L58.6 21.2L52.4 16L45.5 21.2V1H45L36.4 6.9V7.4C37.4 7.9 38.9 8.4 38.9 11.1L38.6 38.9ZM83.6 36.2L77.5 40.9L71.4 36V33L83 25.1V24.9L77 16L64.2 22.9V39.1L61.7 41.1L62.2 41.6L64.4 39.9L72.8 46L83.9 37.1L83.6 36.2ZM71.3 32V19.9L71.8 19.7L77.2 28.3L71.3 32ZM130.6 3.9C130.6 3.2 130.4 2.4 130.1 1.7H129.6C128.9 3.7 127.9 4.7 125.4 4.7C123.2 4.7 121.7 3.5 120.7 2.5L113.6 10.6L114.1 11.1L116.6 8.9C118.1 10.1 119.3 11.1 122.7 11.4V31.8L108.2 6.9C107 4.9 105.2 2.2 101.8 2.2C97.9 2.2 94.4 5.6 94.9 11.1H95.6C95.8 9.6 96.6 7.9 98.3 7.9C99.5 7.9 100.8 9.1 101.5 10.4V18.5C97.1 18.5 94.1 20.5 94.1 24.2C94.1 26.2 95.1 29.1 98 29.9V29.4C97.5 28.9 97.3 28.4 97.3 27.7C97.3 26.5 98.3 25.5 100 25.5H101.2V35.8C96 35.8 91.9 38.8 91.9 43.7C91.9 48.4 95.8 50.6 100.3 50.3V49.8C97.6 49.6 96.4 48.3 96.4 46.6C96.4 44.4 97.9 43.4 99.8 43.4C101.8 43.4 103.5 44.6 104.7 46.1L111.8 38.2L111.3 37.7L109.6 39.7C106.9 37.2 105.4 36.5 102.2 36V11.3L122 45.7H123.5V11.3C127.1 11.1 130.6 8.1 130.6 3.9ZM148.5 36.2L142.4 40.9L136.3 36V33L147.9 25.1V24.9L142 16L129.2 22.9V39.1L126.7 41.1L127.2 41.6L129.4 39.9L137.8 46L148.9 37.1C148.8 37.1 148.5 36.2 148.5 36.2ZM136.2 32V19.9L136.7 19.7L142.1 28.3C142.2 28.3 136.2 32 136.2 32ZM188.6 18.7L186.9 19.9L182.2 16L176.8 20.9L179 23.1V41.5L173.1 37.8V22.6L175.1 21.4L169.4 16L164 20.9L166.2 23.1V40.8L165.5 41.3L160.3 37.6V22.9C160.3 19.5 158.6 18.5 156.6 17.2C154.9 16 153.9 15.2 153.9 13.5C153.9 12 155.4 11.3 156.1 10.8V10.3C154.1 10.3 149 12.3 149 16.9C149 19.4 150.2 20.3 151.5 21.6C152.7 22.8 154 23.8 154 26V40.3L151.3 42.3L151.8 42.8L154.3 40.8L160 45.7L166.1 41.5L173 45.7L186 38.1V21.6L189.2 19.1L188.6 18.7ZM234.4 5.2L231.9 7.4L226.5 2.5L218.4 8.4V3H217.7L217.9 42.8C217.2 42.8 214.9 42.3 213.2 41.8L212.7 8.6C212.7 6.1 211 2.7 206.6 2.7C202.2 2.7 199.2 6.1 199.2 9.6H199.9C200.1 8.1 200.9 6.9 202.4 6.9C203.9 6.9 205.1 7.9 205.1 11.1V20.7C200.7 20.9 198 23.4 198 26.6C198 28.6 199 31.5 201.9 31.5V31C200.9 30.5 200.7 29.8 200.7 29.3C200.7 27.8 201.9 27.3 203.9 27.3H204.9V42.5C201.2 43.7 199.7 46.4 199.7 49.4C199.7 53.6 202.9 56.5 207.8 56.5C211.2 56.5 214.2 56 217.1 55.3C219.6 54.8 222.8 54.1 224.2 54.1C226.2 54.1 226.9 55.1 226.9 56.3C226.9 58 226.2 58.8 225.2 59V59.5C229.1 58.8 231.6 56.3 231.6 52.6C231.6 48.9 227.9 46.7 224 46.7C222 46.7 217.9 47.4 214.9 47.9C211.5 48.6 208 49.1 207 49.1C205.3 49.1 203.3 48.4 203.3 45.9C203.3 43.9 205 42.2 209.2 42.2C211.4 42.2 214.1 42.4 216.8 43.2C219.8 43.9 222.5 44.7 224.9 44.7C228.6 44.7 231.8 43.5 231.8 38.3V8.1L234.8 5.6L234.4 5.2ZM224.3 20.2C223.6 20.9 222.6 21.7 221.3 21.7C220 21.7 218.8 21 218.3 20.2V9.3L220.8 7.6L224.2 10.8C224.3 10.8 224.3 20.2 224.3 20.2ZM224.3 27.5C223.8 27 222.6 26.3 221.3 26.3C220 26.3 218.8 27 218.3 27.5V21.1C218.8 21.6 220 22.3 221.3 22.3C222.6 22.3 223.8 21.6 224.3 21.1V27.5ZM224.3 39.1C224.3 41.1 223.1 43 220.4 43H218.4V28.5C218.9 28 220.1 27.3 221.4 27.3C222.7 27.3 223.6 28 224.4 28.5C224.3 28.5 224.3 39.1 224.3 39.1ZM258 21.6L250.1 15.9L238 22.8V38.8L235.5 40.8L235.7 41.3L237.7 39.8L245.6 45.7L257.9 38.3C258 38.4 258 21.6 258 21.6ZM244.7 37.1V19.4L250.8 23.8V41.3C250.9 41.3 244.7 37.1 244.7 37.1ZM281.4 16.5H280.9C280.2 17 279.4 17.5 278.7 17.5C277.7 17.5 276.5 17 276 16.3H275.5L271.3 21L267.1 16.3L259.7 21.2L259.9 21.7L261.9 20.5L264.4 23.2V38.7L261.2 41.2L261.7 41.7L263.2 40.5L269.1 45.4L276.7 40.2L276.5 39.7L274.3 40.9L271.3 38.4V21.2C272.5 22.4 274 23.7 275.7 23.7C279.1 23.9 281.1 20.4 281.4 16.5ZM310.9 40.1L302.5 45.8L291.2 28.6L299.3 16.1H299.8C300.8 17.1 302.3 18.1 304 18.1C305.7 18.1 307 17.1 307.7 16.1H308.2C308 21 304.5 24 302.1 24C299.6 24 298.4 22.8 296.9 22L296.2 23.2L308.5 41.4L311 39.9V40.1H310.9ZM283.8 38.9L280.6 41.4L281.1 41.9L282.6 40.7L288 45.6L295.4 40.7L294.9 40.2L292.9 41.4L290.4 38.9V1H290.2L281.3 6.9V7.4C282.3 7.9 283.8 8.1 283.8 11.1V38.9ZM351.7 6.1C351.7 1.2 347 0 343.3 0V0.7C345.5 0.7 347.2 1.4 347.2 3.2C347.2 4.2 346.5 5.7 344.2 5.7C342.5 5.7 338.8 4.7 336.1 3.7C332.9 2.7 330 1.7 327.5 1.7C322.6 1.7 319.1 5.4 319.1 9.6C319.1 13.3 321.8 14.5 322.8 15L323 14.5C322.3 14 321.5 13.5 321.5 12C321.5 11 322.5 9.3 324.9 9.3C327.1 9.3 330.1 10.3 334 11.5C337.4 12.5 341.1 13.2 343.1 13.5V21.1L339.4 24.3V24.5L343.1 27.7V38.3C341.1 39.5 338.9 39.8 337 39.8C333.3 39.8 330.1 38.8 327.4 35.9L337.5 31V13.8L325.2 19.2C326.4 16 329.1 13.8 331.6 12.1L331.4 11.6C324 13.6 317.4 20.2 317.4 28.6C317.4 38.4 325.5 45.8 334.6 45.8C344.4 45.8 350.8 37.9 350.8 29.8H350.3C348.8 33 346.6 35.9 343.9 37.4V27.3L347.8 24.1V23.9L344.1 20.7V13.3C348 13.3 351.7 10.8 351.7 6.1ZM330.3 33.2L327.3 34.7C325.6 32.5 324.6 29.5 324.6 25.4C324.6 23.7 324.8 21.7 325.3 20.2L330.5 18L330.3 33.2ZM360.3 3.7H360L355.1 7.9V8.1L359.3 12.8H359.8L364.7 8.6V8.4L360.3 3.7ZM367.7 40.1L365.7 41.3L363.2 38.8V21.8L365.7 20.1L365.2 19.6L363.5 21.1L359.1 15.9L352 20.8L352.5 21.5L354.2 20.3L356.4 23V39L353.2 41.5L353.4 42L355.1 40.8L360.5 45.7L367.9 40.8L367.7 40.1ZM408.7 39.8L407 41L404.3 38.5V21.9L406.8 19.9L406.3 19.4L404.3 21.1L398.6 15.9L391.2 21.1L385.5 15.9L378.6 21.1L374.2 15.9L367.1 20.8L367.3 21.5L369 20.3L371.5 23V39L369.5 41L375.2 45.7L380.6 40.8L378.4 38.6V21.9L380.6 20.4L384.3 23.8V38.6L382.3 40.6L388 45.3L393.4 40.4L391.2 38.2V21.9L393.2 20.7L397.1 24.1V38.9L395.4 40.6L401.1 45.8L408.7 40.6V39.8ZM430.1 36.2L424 40.9L417.9 36V33L429.5 25.1V24.9L423.6 16L410.8 22.9V39.6L419.4 45.7L430.5 36.8C430.4 36.9 430.1 36.2 430.1 36.2ZM417.8 32V19.9L418.3 19.7L423.7 28.3L417.8 32ZM452.5 29.8L447.8 26.1C451 23.4 452.2 19.7 452.2 17.2V15.7H451.7C451.2 16.9 450.2 18.2 448.3 18.2C446.3 18.2 445.1 17.2 443.9 15.7L432.8 21.8V30.7L437 33.9C432.8 37.6 432.1 40 432.1 42C432.1 44.5 433.3 46.2 435.3 46.9L435.5 46.4C435 45.9 434.5 45.7 434.5 44.4C434.5 43.7 435.5 42.4 437.5 42.4C440 42.4 441.4 44.1 442.2 44.9L452.8 38.5V29.6C452.8 29.8 452.5 29.8 452.5 29.8ZM449.8 22.4C448.1 25.4 444.4 28.3 442.2 29.8L439.5 27.6V19C440.5 21.5 443.2 23.4 445.9 23.4C447.6 23.4 448.6 23.1 449.8 22.4ZM445.6 42.1C444.4 39.4 441.4 37.4 438.5 37.4C437.8 37.4 435.8 37.4 433.8 38.6C435 36.6 438.2 33.2 442.4 30.7L445.4 33.2L445.6 42.1Z" fill="#091011"/>
</g>
<defs>
<clipPath id="clip0_3711_10">
<rect width="452.8" height="59.5" fill="white"/>
</clipPath>
</defs>
</svg>
