<svg width="45" height="40" viewBox="0 0 45 40" fill="none" xmlns="http://www.w3.org/2000/svg">
<g clip-path="url(#clip0_3714_139)">
<path fill-rule="evenodd" clip-rule="evenodd" d="M25.0557 34.8124H25.5175L25.6742 36.5897H25.1464C24.767 35.8268 23.8186 35.0722 22.1361 35.0722C20.8454 35.0722 20.268 35.4845 20.268 35.8887C20.268 36.2309 20.6103 36.5361 21.8474 36.7134L23.901 37.0103C25.4021 37.2247 26.1113 37.7402 26.1113 38.4577C26.1113 39.2742 24.9526 39.9258 22.8907 39.9258C21.8103 39.9258 20.866 39.7278 20.1402 39.3979L19.5464 39.8928H19.1134L19.0598 37.9505L19.5588 37.9216C19.9423 39.0268 21.2412 39.6165 22.8866 39.6165C24.2021 39.6165 25.0557 39.2536 25.0557 38.6144C25.0557 38.2144 24.701 37.9464 23.7938 37.8227L21.6619 37.534C20.1237 37.3278 19.2165 36.9567 19.2165 36.1897C19.2165 35.2701 20.4 34.7629 22.099 34.7629C23.0474 34.7629 23.8103 34.9072 24.5196 35.2454L25.0557 34.8124ZM5.62887 34.8206H8.89897V35.1299C8.3299 35.1588 7.92577 35.2206 7.7732 35.4062C7.62062 35.5918 7.55464 35.8268 7.55464 36.1938V39.9175H7.08866L1.95052 35.6783H1.92577V38.6804C1.92577 39.2412 2.04124 39.4763 3.28247 39.5052V39.8144H0V39.5052C1.03093 39.4845 1.34433 39.2495 1.34433 38.6887V35.3608C1.08866 35.1588 0.8 35.134 0.173196 35.134H0V34.8247H2.38763L6.94433 38.5526H6.96907V36.1113C6.96907 35.4763 6.85361 35.1588 5.62474 35.134V34.8206H5.62887ZM15.0227 34.6557H18.532V34.9732C17.5876 34.9938 17.2619 35.2 16.8124 35.6536L14.833 37.6619V39.0062C14.833 39.3814 14.8701 39.4433 15.5794 39.4433H16.2763V39.7608H12.033V39.4433H12.7299C13.4392 39.4433 13.4763 39.3814 13.4763 39.0062V37.7237L10.9237 35.4227C10.5237 35.0598 10.3505 34.9691 9.78969 34.9691H9.49278V34.6515H13.4763V34.9691H12.6928C12.367 34.9691 12.2433 35.0103 12.2433 35.0969C12.2433 35.1753 12.268 35.233 12.4412 35.3856L14.5072 37.2619L15.9381 35.8268C16.1732 35.5876 16.2887 35.4433 16.2887 35.266C16.2887 35.0392 15.9918 34.9691 15.0186 34.9691V34.6557H15.0227ZM30.1402 37.3113C30.4577 37.299 30.7835 37.2907 31.101 37.2907C32.8825 37.2907 33.6577 37.5093 33.6577 38.4082C33.6577 39.3608 32.5691 39.4598 31.1381 39.4598C30.2474 39.4598 30.1402 39.4021 30.1402 39.0309V37.3113ZM27.5629 35.0227H28.2062C28.6639 35.0227 28.8619 35.101 28.8619 35.3814V39.101C28.8619 39.3814 28.6639 39.4598 28.2062 39.4598H27.5629V39.7773H31.7278C33.8392 39.7773 35.0722 39.3278 35.0722 38.3794C35.0722 37.7072 34.1814 37.2371 32.5732 37.1381V37.1258C33.7237 37.0557 34.6474 36.6557 34.6474 35.9134C34.6474 35.2825 33.7691 34.7134 31.9959 34.7134H27.5629V35.0227ZM30.1402 35.4103C30.1402 35.1423 30.3052 35.0227 31.068 35.0227C32.1485 35.0227 32.3711 35.0433 32.7588 35.2124C33.1711 35.3938 33.299 35.6412 33.299 35.9835C33.299 36.6309 32.7835 36.9732 30.9526 36.9732C30.7052 36.9732 30.4124 36.9732 30.1443 36.9608V35.4103H30.1402ZM35.3691 39.7649H38.5732V39.4474C37.8433 39.4392 37.3361 39.3773 37.3361 39.0474C37.3361 38.9691 37.3979 38.8454 37.5175 38.6474L37.8433 38.0907H41.1175L41.6866 38.9196C41.8062 39.101 41.8557 39.2 41.8557 39.266C41.8557 39.3856 41.6371 39.4474 40.9113 39.4474H40.6062V39.7649H44.3175V39.4474C43.6495 39.4474 43.4309 39.4062 43.2495 39.1464L40.0454 34.5814H39.5588L36.6227 38.9031C36.3918 39.2495 36.0165 39.4433 35.3608 39.4515V39.7649H35.3691ZM38.0742 37.7402L39.4557 35.6866L40.8866 37.7402H38.0742ZM43.2701 8.92783L43.2206 11.8144L1.07629 11.8186L1.02268 8.95258L21.7361 0L43.2701 8.92783ZM1.32371 13.6742V29.5505H5.85979L4.82887 13.6742H1.32371ZM9.98351 13.468L8.54021 29.5505H15.3856L14.3546 13.468H9.98351ZM19.5711 13.3649L18.1278 29.4474H25.0763L24.0454 13.3649H19.5711ZM29.2619 13.3649L27.8186 29.4474H34.767L33.7361 13.3649H29.2619ZM42.8701 13.2619V29.5505H37.8186L38.8495 13.2619H42.8701ZM1.32371 32.6433H42.9732V30.9938H1.32371V32.6433ZM41.3897 5.71546C41.6206 5.71546 41.8268 5.69897 41.8268 5.42268C41.8268 5.2 41.6247 5.15876 41.4351 5.15876H41.0639V5.71546H41.3897ZM41.0639 6.72577H40.7918V4.92783H41.4763C41.901 4.92783 42.1113 5.08454 42.1113 5.43918C42.1113 5.76082 41.9093 5.90103 41.6454 5.93402L42.1567 6.72577H41.8515L41.3773 5.94639H41.0639V6.72577ZM41.3938 7.12577C42.099 7.12577 42.6557 6.5732 42.6557 5.82268C42.6557 5.08454 42.099 4.52783 41.3938 4.52783C40.6804 4.52783 40.1237 5.08454 40.1237 5.82268C40.1237 6.5732 40.6804 7.12577 41.3938 7.12577ZM39.8103 5.82268C39.8103 4.92783 40.5361 4.26804 41.3938 4.26804C42.2433 4.26804 42.9691 4.92783 42.9691 5.82268C42.9691 6.72577 42.2433 7.38557 41.3938 7.38557C40.5361 7.38557 39.8103 6.72577 39.8103 5.82268Z" fill="#091011"/>
</g>
<defs>
<clipPath id="clip0_3714_139">
<rect width="44.5361" height="40" fill="white"/>
</clipPath>
</defs>
</svg>
