<svg width="143" height="40" viewBox="0 0 143 40" fill="none" xmlns="http://www.w3.org/2000/svg">
<path d="M45.5965 9.49023H53.6023C57.928 9.49023 60.8217 12.0137 60.8217 15.9519C60.8217 18.4491 59.5005 20.4445 57.4525 21.4148L61.3268 28.9028H56.664L53.3463 22.3851H49.808V28.9028H45.5908V9.49023H45.5965ZM49.8137 12.9554V18.9177H53.2697C55.2651 18.9177 56.5268 17.7519 56.5268 15.9485C56.5268 14.1451 55.2651 12.9531 53.2697 12.9531H49.8125V12.9554H49.8137ZM61.9291 21.7999C61.9291 17.3622 64.8777 14.4811 69.344 14.4811C73.8114 14.4811 76.5931 17.1417 76.6491 21.3291C76.6491 21.7474 76.6217 22.2159 76.536 22.6605H66.0571V22.8537C66.1417 24.8765 67.4617 26.0982 69.456 26.0982C71.0594 26.0982 72.1817 25.4045 72.5188 24.0754H76.4251C75.9748 26.8491 73.4765 29.0662 69.6251 29.0662C64.8205 29.0662 61.9291 26.2114 61.9291 21.7999ZM72.6605 20.1074C72.3782 18.3599 71.1691 17.3897 69.3725 17.3897C67.5748 17.3897 66.3657 18.4159 66.1428 20.1074H72.6605ZM88.096 14.6502H92.0583V28.9051H88.5462L88.1828 27.1851C87.2571 28.2937 85.9942 29.0708 83.9394 29.0708C80.9634 29.0708 78.208 27.5999 78.208 22.5519V14.6479H82.1714V22.0239C82.1714 24.5748 83.0171 25.8239 84.9817 25.8239C86.9474 25.8239 88.0982 24.4114 88.0982 21.7748V14.6479H88.096L88.0982 14.6502H88.096ZM94.4022 10.6662H98.3634V14.6582H101.651V17.9599H98.3634V24.2011C98.3634 25.1999 98.7577 25.6148 99.768 25.6148H101.817V28.9131H98.528C95.7737 28.9131 94.4 27.5565 94.4 24.8388V10.6674L94.4022 10.6662ZM102.472 21.7999C102.472 17.3622 105.421 14.4811 109.889 14.4811C114.358 14.4811 117.137 17.1417 117.193 21.3291C117.193 21.7474 117.162 22.2159 117.08 22.6605H106.6V22.8537C106.682 24.8765 108.005 26.0982 109.999 26.0982C111.602 26.0982 112.725 25.4045 113.065 24.0754H116.968C116.518 26.8491 114.019 29.0662 110.17 29.0662C105.366 29.0662 102.472 26.2114 102.472 21.7999ZM113.206 20.1074C112.923 18.3599 111.714 17.3897 109.918 17.3897C108.12 17.3897 106.911 18.4159 106.688 20.1074H113.206ZM127.747 14.6479V18.1999H126.174C123.813 18.1999 122.917 19.7519 122.917 21.9165V28.9051H118.954V14.6514H122.55L122.917 16.7839C123.703 15.5085 124.824 14.6514 127.073 14.6514H127.747V14.6479ZM132.144 24.1622C132.286 25.4091 133.378 26.2697 135.32 26.2697C136.976 26.2697 137.989 25.7428 137.989 24.7451C137.989 23.5805 137.007 23.4982 134.673 23.1942C131.301 22.8057 128.688 22.0571 128.688 19.1188C128.688 16.1817 131.19 14.4331 134.895 14.4605C138.77 14.4605 141.442 16.1542 141.639 19.0628H137.846C137.735 17.9257 136.638 17.2319 135.037 17.2319C133.437 17.2319 132.481 17.7874 132.481 18.7017C132.481 19.7839 133.718 19.8948 135.798 20.1439C139.114 20.4754 141.867 21.2262 141.867 24.4434C141.867 27.2708 139.17 29.0742 135.293 29.0742C131.416 29.0742 128.552 27.2137 128.381 24.1668H132.145H132.143L132.144 24.1622Z" fill="#091011"/>
<path d="M33.5909 5.21486C34.0846 5.70971 34.3589 6.37143 34.3589 7.072C34.3586 7.50332 34.252 7.92792 34.0484 8.30819C33.8449 8.68846 33.5507 9.01267 33.1919 9.25209C32.8332 9.49151 32.4209 9.63876 31.9916 9.68079C31.5623 9.72283 31.1293 9.65835 30.7309 9.49307C30.3325 9.3278 29.9811 9.06682 29.7076 8.73326C29.4342 8.39969 29.2472 8.00384 29.1633 7.58077C29.0793 7.15769 29.1011 6.72045 29.2265 6.30776C29.3519 5.89508 29.5771 5.51969 29.8823 5.21486C30.1255 4.97076 30.4146 4.77714 30.7329 4.64514C31.0513 4.51315 31.3925 4.44537 31.7371 4.44571C32.0816 4.44502 32.4228 4.51264 32.741 4.64466C33.0592 4.77668 33.3481 4.97048 33.5909 5.21486ZM5.22286 33.6343C4.73182 33.1414 4.45611 32.474 4.45611 31.7783C4.45611 31.0826 4.73182 30.4152 5.22286 29.9223C5.46582 29.6775 5.75501 29.4834 6.07364 29.3514C6.39226 29.2193 6.73396 29.152 7.07886 29.1531C7.78057 29.1531 8.43886 29.4251 8.93257 29.9223C9.42305 30.4155 9.69837 31.0827 9.69837 31.7783C9.69837 32.4738 9.42305 33.1411 8.93257 33.6343C8.68984 33.8788 8.40101 34.0726 8.08281 34.2047C7.7646 34.3367 7.42336 34.4043 7.07886 34.4034C6.37943 34.4034 5.71771 34.1314 5.22286 33.6343ZM25.2126 5.41943L25.1943 5.41257C24.9192 5.29696 24.6696 5.12824 24.4597 4.91605C24.2499 4.70387 24.084 4.45239 23.9714 4.176C23.8547 3.89751 23.7945 3.59855 23.7945 3.29657C23.7945 2.99459 23.8547 2.69563 23.9714 2.41714C24.1442 1.99696 24.438 1.63765 24.8155 1.3849C25.193 1.13214 25.6371 0.997369 26.0914 0.997714C26.469 0.99879 26.8404 1.09276 27.1731 1.27133C27.5057 1.44991 27.7893 1.7076 27.9987 2.02167C28.2082 2.33575 28.3372 2.69655 28.3743 3.07226C28.4114 3.44796 28.3555 3.82702 28.2114 4.176C27.9783 4.73828 27.5315 5.18506 26.9693 5.4182C26.407 5.65134 25.7752 5.65178 25.2126 5.41943ZM12.7326 33.2606C13.0297 33.2606 13.3269 33.32 13.608 33.4343C14.0268 33.6092 14.3845 33.9041 14.6361 34.2818C14.8877 34.6596 15.0219 35.1033 15.0219 35.5571C15.0219 36.011 14.8877 36.4547 14.6361 36.8325C14.3845 37.2102 14.0268 37.5051 13.608 37.68C13.3299 37.7968 13.0313 37.8569 12.7297 37.8569C12.4281 37.8569 12.1295 37.7968 11.8514 37.68C11.3617 37.4751 10.9579 37.1071 10.7085 36.6385C10.4591 36.1699 10.3795 35.6294 10.483 35.1088C10.5866 34.5881 10.8671 34.1193 11.2769 33.7818C11.6867 33.4444 12.2006 33.259 12.7314 33.2571L12.7326 33.2606ZM21.3737 1.96914C21.3737 3.02514 20.5394 3.88914 19.4971 3.93829H19.408C18.8974 3.92089 18.4135 3.7058 18.0584 3.33842C17.7033 2.97103 17.5048 2.48008 17.5048 1.96914C17.5048 1.45821 17.7033 0.967254 18.0584 0.599869C18.4135 0.232483 18.8974 0.0174 19.408 0C20.4903 0 21.3737 0.886857 21.3737 1.97143V1.96914ZM17.4377 36.888C17.4377 35.8 18.3211 34.9177 19.4046 34.9177C20.4891 34.9177 21.3714 35.8023 21.3714 36.888C21.3714 37.9737 20.4891 38.8571 19.4057 38.8571C18.8838 38.8562 18.3836 38.6484 18.0147 38.2793C17.6458 37.9102 17.4383 37.4099 17.4377 36.888ZM13.3657 4.81371C13.1667 4.89657 12.9533 4.93928 12.7377 4.93941C12.5221 4.93954 12.3086 4.89707 12.1095 4.81445C11.9104 4.73183 11.7296 4.61068 11.5774 4.45797C11.4252 4.30526 11.3048 4.12399 11.2229 3.92457C11.1199 3.67536 11.0799 3.40464 11.1063 3.1363C11.1326 2.86796 11.2247 2.61023 11.3742 2.38584C11.5237 2.16145 11.7261 1.9773 11.9636 1.84962C12.2011 1.72195 12.4664 1.65467 12.736 1.65371C13.3806 1.65371 13.9909 2.03771 14.2549 2.66857C14.4217 3.07657 14.4217 3.52229 14.2549 3.92457C14.1738 4.12481 14.0533 4.3067 13.9006 4.45945C13.7478 4.61219 13.5659 4.73267 13.3657 4.81371ZM25.4469 34.0411C25.6526 33.9566 25.864 33.9131 26.0766 33.9131C26.2891 33.9131 26.5017 33.9566 26.704 34.0389C27.1109 34.2069 27.4263 34.5223 27.592 34.928C27.7589 35.336 27.7589 35.7806 27.592 36.184C27.4887 36.4332 27.3255 36.653 27.1169 36.8241C26.9084 36.9952 26.6609 37.1122 26.3963 37.1649C26.1317 37.2175 25.8583 37.2041 25.6001 37.1259C25.342 37.0476 25.1071 36.907 24.9162 36.7163C24.7254 36.5257 24.5845 36.291 24.506 36.0329C24.4275 35.7748 24.4138 35.5014 24.4661 35.2367C24.5185 34.9721 24.6353 34.7245 24.8061 34.5158C24.977 34.307 25.1967 34.1436 25.4457 34.04L25.4469 34.0411ZM8.00343 6.16C8.50857 6.66514 8.51543 7.47886 8.02857 7.99429L8 8.02286C7.75305 8.26872 7.41876 8.40676 7.07029 8.40676C6.72181 8.40676 6.38752 8.26872 6.14057 8.02286C5.89429 7.77566 5.756 7.44094 5.756 7.092C5.756 6.74306 5.89429 6.40834 6.14057 6.16114C6.39657 5.90514 6.73257 5.77714 7.06971 5.77714C7.408 5.77714 7.744 5.90514 8 6.16114L8.00343 6.16ZM30.7966 30.8423C31.145 30.8426 31.4791 30.9813 31.7254 31.2278C31.9716 31.4744 32.1099 31.8087 32.1097 32.1571C32.1096 32.5056 31.971 32.8398 31.7246 33.0861C31.4781 33.3325 31.1439 33.4709 30.7954 33.4709C30.447 33.4709 30.1127 33.3325 29.8663 33.0861C29.6198 32.8398 29.4813 32.5056 29.4811 32.1571C29.481 31.8087 29.6192 31.4744 29.8655 31.2278C30.1117 30.9813 30.4458 30.8426 30.7943 30.8423H30.7966ZM2.66857 14.2629C2.27849 14.0878 1.97199 13.7676 1.81413 13.3703C1.65627 12.9729 1.65948 12.5297 1.82308 12.1347C1.98668 11.7396 2.29779 11.4239 2.69037 11.2545C3.08295 11.0851 3.52609 11.0754 3.92571 11.2274C4.22529 11.3522 4.48123 11.5628 4.66126 11.8328C4.8413 12.1028 4.93737 12.4201 4.93737 12.7446C4.93737 13.0691 4.8413 13.3863 4.66126 13.6563C4.48123 13.9263 4.22529 14.137 3.92571 14.2617C3.72683 14.3443 3.51362 14.3868 3.29829 14.3868C3.08295 14.3868 2.86974 14.3443 2.67086 14.2617L2.66857 14.2629ZM36.152 24.6C36.5589 24.7669 36.8731 25.0823 37.04 25.4891C37.1653 25.789 37.1986 26.1194 37.1357 26.4382C37.0728 26.7571 36.9165 27.05 36.6867 27.2798C36.4569 27.5096 36.1639 27.6659 35.8451 27.7288C35.5262 27.7918 35.1959 27.7584 34.896 27.6331C34.696 27.5517 34.5143 27.4309 34.3618 27.278C34.2093 27.1251 34.089 26.9431 34.008 26.7429C33.883 26.443 33.85 26.1128 33.9131 25.7942C33.9761 25.4756 34.1325 25.1829 34.3622 24.9532C34.5919 24.7236 34.8847 24.5675 35.2034 24.5046C35.5221 24.4417 35.8522 24.4749 36.152 24.6ZM0 19.4389C0 18.352 0.882286 17.4697 1.96571 17.4697C3.05143 17.4697 3.93371 18.3543 3.93371 19.4389C3.93371 20.5246 3.05029 21.408 1.96686 21.408C1.44548 21.4065 0.945906 21.1986 0.577342 20.8299C0.208779 20.4611 0.00120611 19.9602 0 19.4389ZM34.88 19.4389C34.88 18.352 35.7634 17.4697 36.848 17.4697C37.9314 17.4697 38.8149 18.3543 38.8149 19.4389C38.8149 20.5246 37.9314 21.408 36.848 21.408C36.3263 21.4068 35.8264 21.1989 35.4577 20.8298C35.0891 20.4607 34.8806 19.9605 34.88 19.4389ZM1.16457 26.9886C0.932342 26.4256 0.932686 25.7935 1.16553 25.2308C1.39837 24.6681 1.84473 24.2206 2.40686 23.9863C2.68495 23.8695 2.98353 23.8094 3.28514 23.8094C3.58675 23.8094 3.88534 23.8695 4.16343 23.9863C4.72914 24.2229 5.16914 24.6629 5.40571 25.2297C5.52264 25.5084 5.58286 25.8075 5.58286 26.1097C5.58286 26.4119 5.52264 26.7111 5.40571 26.9897C5.2906 27.2684 5.12161 27.5215 4.90843 27.7347C4.69524 27.9479 4.44207 28.1169 4.16343 28.232C3.88534 28.3488 3.58675 28.4089 3.28514 28.4089C2.98353 28.4089 2.68495 28.3488 2.40686 28.232C2.12811 28.1168 1.87487 27.9476 1.66168 27.7342C1.4485 27.5208 1.27956 27.2674 1.16457 26.9886ZM33.3909 13.6229C33.2755 13.3444 33.2161 13.0459 33.216 12.7445C33.216 12.443 33.2754 12.1446 33.3908 11.8661C33.5061 11.5876 33.6752 11.3346 33.8884 11.1214C34.1016 10.9083 34.3546 10.7393 34.6331 10.624C35.1894 10.4233 35.8016 10.4448 36.3424 10.6839C36.8832 10.923 37.3111 11.3614 37.537 11.9078C37.7629 12.4543 37.7695 13.0668 37.5554 13.618C37.3413 14.1693 36.923 14.6167 36.3874 14.8674C36.1093 14.9842 35.8108 15.0443 35.5091 15.0443C35.2075 15.0443 34.9089 14.9842 34.6309 14.8674C34.3521 14.7521 34.0989 14.5829 33.8857 14.3696C33.6726 14.1562 33.5036 13.9028 33.3886 13.624L33.3909 13.6229ZM24.9874 25.0149C24.7291 25.2726 24.553 25.6012 24.4815 25.9591C24.41 26.3169 24.4462 26.6879 24.5856 27.0252C24.725 27.3624 24.9613 27.6508 25.2646 27.8537C25.5679 28.0566 25.9245 28.165 26.2895 28.1652C26.6544 28.1653 27.0112 28.0573 27.3147 27.8546C27.6181 27.6519 27.8547 27.3638 27.9944 27.0267C28.1341 26.6895 28.1706 26.3185 28.0994 25.9606C28.0282 25.6027 27.8524 25.274 27.5943 25.016C27.2477 24.6724 26.7796 24.4793 26.2916 24.4786C25.8035 24.478 25.3349 24.6699 24.9874 25.0126V25.0149ZM9.61829 18.312C9.24365 18.212 8.92409 17.9672 8.72991 17.6316C8.53573 17.296 8.48283 16.8969 8.58286 16.5223C8.68288 16.1476 8.92763 15.8281 9.26327 15.6339C9.59891 15.4397 9.99793 15.3868 10.3726 15.4869C10.7432 15.5907 11.058 15.8365 11.2486 16.1709C11.4393 16.5053 11.4905 16.9013 11.3911 17.2732C11.2917 17.6451 11.0497 17.9628 10.7177 18.1574C10.3856 18.3521 9.99018 18.4081 9.61714 18.3131L9.61829 18.312ZM28.4343 23.36C28.0569 23.2686 27.7313 23.0311 27.5291 22.6996C27.3269 22.3682 27.2646 21.9699 27.356 21.5926C27.4474 21.2152 27.6849 20.8896 28.0164 20.6874C28.3478 20.4852 28.7461 20.4229 29.1234 20.5143L29.192 20.5337C29.5503 20.648 29.8508 20.8959 30.0311 21.226C30.2114 21.556 30.2577 21.9428 30.1603 22.3061C30.063 22.6693 29.8295 22.9811 29.5083 23.1767C29.1871 23.3724 28.8029 23.4368 28.4354 23.3566V23.36H28.4343ZM8.87086 22.2526C8.79378 21.9642 8.82961 21.6572 8.97104 21.3943C9.11247 21.1314 9.34886 20.9323 9.632 20.8377L9.69829 20.8194C9.9221 20.7591 10.1588 20.7667 10.3783 20.8412C10.5978 20.9157 10.7902 21.0537 10.9311 21.2378C11.0719 21.4219 11.1549 21.6437 11.1694 21.8751C11.1839 22.1064 11.1293 22.3369 11.0126 22.5371C10.8569 22.8058 10.6014 23.0021 10.3017 23.0834C10.1532 23.1238 9.99821 23.1341 9.84571 23.1137C9.69321 23.0933 9.54634 23.0426 9.41371 22.9646C9.14589 22.8093 8.95003 22.5547 8.86857 22.256L8.87086 22.2526ZM28.224 17.9257L28.1737 17.8949C27.9841 17.7712 27.8344 17.5954 27.7425 17.3886C27.6506 17.1817 27.6206 16.9527 27.656 16.7292C27.6914 16.5057 27.7907 16.2972 27.942 16.1288C28.0933 15.9605 28.2901 15.8396 28.5086 15.7806C28.6945 15.7309 28.8898 15.7279 29.0771 15.7717C29.2645 15.8155 29.4382 15.9049 29.5828 16.0319C29.7273 16.1589 29.8384 16.3195 29.9061 16.4997C29.9737 16.6798 29.996 16.8738 29.9707 17.0646C29.9455 17.2554 29.8736 17.437 29.7615 17.5933C29.6493 17.7497 29.5003 17.876 29.3277 17.961C29.1551 18.0461 28.9642 18.0872 28.7719 18.0809C28.5796 18.0745 28.3918 18.0208 28.2251 17.9246L28.224 17.9257ZM13.1714 26.8937L13.1371 26.928C12.9706 27.0852 12.7492 27.1712 12.5202 27.1679C12.2912 27.1645 12.0725 27.0719 11.9107 26.9099C11.7488 26.7479 11.6565 26.5291 11.6533 26.3001C11.6501 26.0711 11.7364 25.8499 11.8937 25.6834C12.0548 25.5164 12.2753 25.4198 12.5072 25.4146C12.7392 25.4094 12.9638 25.4959 13.1323 25.6555C13.3007 25.815 13.3993 26.0346 13.4066 26.2665C13.414 26.4984 13.3294 26.7238 13.1714 26.8937ZM26.9086 11.9086C26.9907 11.9902 27.056 12.0872 27.1005 12.1941C27.145 12.301 27.1679 12.4156 27.1679 12.5314C27.1679 12.6472 27.145 12.7619 27.1005 12.8688C27.056 12.9757 26.9907 13.0727 26.9086 13.1543C26.7851 13.2766 26.6282 13.3596 26.4577 13.3929C26.2871 13.4261 26.1105 13.4082 25.9502 13.3412C25.7898 13.2743 25.6529 13.1614 25.5566 13.0167C25.4603 12.872 25.4091 12.7021 25.4092 12.5283C25.4094 12.3546 25.461 12.1847 25.5575 12.0403C25.654 11.8958 25.7912 11.7831 25.9517 11.7165C26.1122 11.6498 26.2888 11.6322 26.4593 11.6657C26.6298 11.6993 26.7865 11.7826 26.9097 11.9051V11.9074L26.9086 11.9086ZM17.8971 28.2583C18.0328 28.4927 18.0829 28.767 18.0389 29.0343C17.9949 29.3015 17.8596 29.5453 17.656 29.7239C17.4524 29.9026 17.1932 30.0051 16.9224 30.0139C16.6517 30.0228 16.3863 29.9375 16.1715 29.7725C15.9566 29.6076 15.8056 29.3732 15.7443 29.1094C15.6829 28.8456 15.715 28.5687 15.835 28.3258C15.955 28.083 16.1555 27.8893 16.4023 27.7778C16.6492 27.6663 16.927 27.6438 17.1886 27.7143C17.4903 27.7966 17.7417 27.9886 17.8971 28.2606V28.2583ZM20.9086 10.6046C20.793 10.4042 20.7394 10.1741 20.7544 9.94326C20.7694 9.71243 20.8524 9.49122 20.993 9.30751C21.1336 9.1238 21.3254 8.98582 21.5442 8.91096C21.7631 8.8361 21.9992 8.82771 22.2229 8.88686C22.3714 8.92663 22.5107 8.99528 22.6328 9.08888C22.7548 9.18248 22.8573 9.29921 22.9342 9.4324C23.0111 9.56558 23.0611 9.71262 23.0812 9.86511C23.1013 10.0176 23.0912 10.1726 23.0514 10.3211C23.0117 10.4697 22.943 10.609 22.8494 10.7311C22.7558 10.8531 22.6391 10.9555 22.5059 11.0325C22.3727 11.1094 22.2257 11.1594 22.0732 11.1795C21.9207 11.1996 21.7657 11.1895 21.6171 11.1497C21.4688 11.1104 21.3297 11.042 21.2081 10.9484C21.0864 10.8548 20.9846 10.7379 20.9086 10.6046ZM22.6651 27.584L22.7269 27.6206C23.0323 27.8339 23.2448 28.1558 23.321 28.5204C23.3973 28.8851 23.3315 29.2651 23.1372 29.5829C22.9428 29.9008 22.6345 30.1325 22.2752 30.2308C21.9158 30.3291 21.5325 30.2866 21.2034 30.112C21.037 30.0165 20.8911 29.8889 20.7742 29.7367C20.6573 29.5845 20.5717 29.4106 20.5223 29.2251C20.4194 28.848 20.4731 28.4537 20.6674 28.1143C20.7631 27.9479 20.8907 27.802 21.0428 27.6851C21.195 27.5681 21.3688 27.4824 21.5542 27.4328C21.7397 27.3832 21.933 27.3707 22.1233 27.3961C22.3135 27.4214 22.4969 27.4841 22.6629 27.5806L22.6651 27.584ZM17.2629 11.4263C16.8889 11.5249 16.4911 11.4716 16.1563 11.278C15.8214 11.0845 15.5767 10.7664 15.4754 10.3931C15.4181 10.1771 15.4111 9.95072 15.455 9.73151C15.4988 9.51229 15.5923 9.30604 15.7282 9.12859C15.8642 8.95114 16.039 8.8072 16.2393 8.70785C16.4395 8.60849 16.6599 8.55635 16.8834 8.55543C17.2048 8.55559 17.5171 8.66157 17.7722 8.85697C18.0273 9.05238 18.211 9.32636 18.2949 9.63657C18.3948 10.0107 18.3423 10.4093 18.1488 10.7447C17.9553 11.0802 17.6367 11.3253 17.2629 11.4263ZM12.52 14.3623C12.7619 14.3621 13.0013 14.3143 13.2247 14.2217C13.4481 14.129 13.651 13.9932 13.822 13.8221C13.9929 13.6509 14.1284 13.4478 14.2208 13.2243C14.3132 13.0008 14.3607 12.7613 14.3606 12.5194C14.3604 12.2776 14.3126 12.0381 14.2199 11.8147C14.1272 11.5913 13.9915 11.3884 13.8203 11.2175C13.6492 11.0466 13.4461 10.911 13.2226 10.8186C12.9991 10.7262 12.7596 10.6787 12.5177 10.6789C12.0293 10.6792 11.5609 10.8735 11.2158 11.2191C10.8706 11.5647 10.6768 12.0333 10.6771 12.5217C10.6774 13.0102 10.8718 13.4785 11.2174 13.8237C11.563 14.1688 12.0315 14.3626 12.52 14.3623Z" fill="#091011"/>
</svg>
