<svg width="453" height="40" viewBox="0 0 453 40" fill="none" xmlns="http://www.w3.org/2000/svg">
<g clip-path="url(#clip0_3711_13)">
<path d="M12.5266 35.7714C12.5266 37.5204 13.0346 37.8583 14.1633 38.1417L15.9123 38.5369V39.3266H4.28817V38.5369L5.75536 38.199C6.8841 37.9173 7.39206 37.3514 7.39206 35.7732V1.57602H6.1505C2.65205 1.57602 1.24156 7.27526 0.84641 13.3129H0V0.447857H19.9187V13.3135H19.0723C18.6771 7.27583 17.2666 1.5766 13.7682 1.5766H12.5266V35.7714ZM21.1603 38.5363L22.4018 38.1973C23.5305 37.9155 24.0385 37.3509 24.0385 35.7714V3.94631C24.0385 2.36631 23.5305 1.85835 22.4018 1.57602L21.1603 1.23757V0.447278H32.1636V1.23757L30.8659 1.57602C29.7939 1.85835 29.1731 2.30961 29.1731 3.88962V18.7299H37.6939V3.88962C37.6939 2.30961 37.0731 1.85835 36.0011 1.57602L34.7034 1.23757V0.447278H45.7067V1.23757L44.4652 1.57602C43.337 1.85835 42.829 2.36631 42.829 3.94631V35.7153C42.829 37.2953 43.337 37.9173 44.4652 38.199L45.7067 38.5369V39.3266H34.7028V38.5369L36.0005 38.2557C37.0725 37.974 37.6933 37.352 37.6933 35.7732V20.0281H29.1731V35.7714C29.1731 37.3509 29.7939 37.9722 30.8659 38.254L32.1636 38.5363V39.3249H21.1603V38.5363ZM54.9605 38.1984H58.8541C63.9326 38.1984 64.8918 32.4425 65.5687 26.4615H66.4151V39.3254H46.9477V38.5363L48.1892 38.1984C49.318 37.9161 49.826 37.3509 49.826 35.772V4.00243C49.826 2.42301 49.318 1.85835 48.1892 1.57602L46.9477 1.23757V0.447278H65.851V13.3129H65.0046C64.3839 7.27526 63.199 1.57602 58.8541 1.57602H54.9605V18.5609L56.7662 18.5042C59.1926 18.3347 60.0951 16.2473 60.7159 11.3372H61.5623V27.0239H60.7159C60.2085 20.8734 59.2487 19.9141 56.7095 19.7446L54.9605 19.6879V38.1984ZM78.4801 5.63913C77.7465 2.31019 77.2952 1.80223 76.2232 1.5199L75.1511 1.23757V0.447278H85.7032V1.23757L84.8568 1.4065C83.0512 1.80165 83.2201 3.60729 83.7281 6.0337L88.1857 28.1532L91.4586 10.5475L90.2737 4.50924C89.8224 2.36515 89.6529 1.68826 88.5248 1.40593L87.7912 1.23699V0.4467H98.1176V1.23699L96.876 1.46262C95.0137 1.80107 95.296 3.83234 95.7473 6.03312L100.036 28.1538L104.268 7.21856C105.058 2.87369 104.663 1.80165 102.97 1.4632L101.786 1.23757V0.447278H109.516V1.23757L108.444 1.5199C107.09 1.85835 106.751 2.93039 105.961 6.71118L99.0768 39.5522H97.6096L92.3056 13.9343L87.5088 39.5522H85.6465L78.4801 5.63913ZM133.667 38.1984H135.924C140.72 38.1984 142.131 32.4975 142.695 26.4615H143.541V39.3254H114.707V38.5363L115.892 38.3095C118.318 37.8594 118.318 37.1825 117.697 33.7951L116.625 28.7167H109.684L108.951 32.5553C108.104 36.9002 108.556 37.9711 110.249 38.3095L111.434 38.5363V39.3254H103.591V38.5363L104.55 38.2546C106.073 37.8033 106.468 36.9002 107.259 33.0627L114.143 0.221068H115.836L123.058 34.1342C123.792 37.6332 124.13 38.3651 126.161 38.3651C127.91 38.3651 128.531 37.4619 128.531 35.7709V3.94573C128.531 2.36573 128.024 1.85777 126.895 1.57544L125.653 1.23699V0.447278H136.826V1.29369L135.302 1.63214C134.174 1.85777 133.666 2.36573 133.666 3.94573L133.667 38.1984ZM109.911 27.4196H116.343L113.071 11.3951L109.911 27.4196ZM152.796 38.1984H155.053C159.849 38.1984 161.26 32.4975 161.824 26.4615H162.67V39.3254H144.783V38.5363L146.025 38.1984C147.153 37.9161 147.661 37.3509 147.661 35.772V3.94631C147.661 2.36631 147.153 1.85835 146.025 1.57602L144.783 1.23757V0.447278H155.956V1.29369L154.433 1.63214C153.304 1.85777 152.796 2.36573 152.796 3.94573V38.1984ZM181.07 39.5511C177.798 39.5511 176.67 37.2953 175.598 37.2953C174.977 37.2953 174.244 37.4643 173.68 39.3266H173.003V26.4604H173.849C174.526 33.7396 177.235 38.3089 181.015 38.3089C183.555 38.3089 185.304 35.9953 185.304 31.82C185.304 23.0169 172.721 19.2367 172.721 9.4743C172.721 4.22691 175.43 0.21991 180.226 0.21991C183.329 0.21991 184.007 2.25118 185.304 2.25118C186.038 2.25118 186.546 1.6871 186.828 0.445543H187.504V13.3112H186.658C185.981 6.82226 184.232 1.46147 180.168 1.46147C177.347 1.46147 176.783 4.28245 176.783 6.20148C176.783 14.6095 189.366 17.4871 189.366 29.2235C189.364 35.2074 186.092 39.5511 181.07 39.5511ZM201.836 35.7714C201.836 37.3509 202.343 37.9155 203.472 38.1973L204.939 38.5363V39.3249H193.598V38.5363L195.065 38.1973C196.194 37.9155 196.702 37.3509 196.702 35.7714V1.57602H195.46C191.961 1.57602 190.551 7.27526 190.156 13.3129H189.309V0.447857H209.229V13.3135H208.382C207.987 7.27583 206.577 1.5766 203.078 1.5766H201.837V35.7714H201.836ZM210.469 38.5363L211.711 38.1973C212.839 37.9155 213.347 37.3509 213.347 35.7714V3.94631C213.347 2.36631 212.839 1.85835 211.711 1.57602L210.469 1.23757V0.447278H221.247C226.044 0.447278 230.501 3.49447 230.501 9.8706C230.501 14.7801 228.188 18.2225 223.504 19.464C228.639 20.4227 228.639 22.8502 229.147 29.338L229.485 34.3037C229.655 37.0685 229.768 37.6905 230.558 37.6905C231.404 37.6905 231.743 35.7726 231.743 33.9097V32.9505H232.702V34.2476C232.702 37.3514 232.025 39.5517 228.809 39.5517C225.648 39.5517 224.182 37.746 223.955 31.2576L223.674 24.0351C223.561 20.5928 222.715 20.0848 221.078 20.0848H218.426V35.772C218.426 37.3514 218.934 37.9728 220.063 38.2546L221.304 38.5369V39.3254H210.47L210.469 38.5363ZM218.425 18.9561H220.288C223.448 18.9561 225.028 18.1097 225.028 10.6048C225.028 3.0999 222.94 1.5766 220.683 1.5766H218.426L218.425 18.9561ZM241.053 38.1984H244.946C250.024 38.1984 250.985 32.4425 251.66 26.4615H252.507V39.3254H233.039V38.5363L234.281 38.1984C235.409 37.9161 235.917 37.3509 235.917 35.772V4.00243C235.917 2.42301 235.409 1.85835 234.281 1.57602L233.039 1.23757V0.447278H251.943V13.3129H251.096C250.477 7.27526 249.291 1.57602 244.946 1.57602H241.053V18.5609L242.858 18.5042C245.284 18.3347 246.188 16.2473 246.808 11.3372H247.655V27.0239H246.808C246.3 20.8734 245.341 19.9141 242.8 19.7446L241.053 19.6879V38.1984ZM261.988 38.1984H265.882C270.958 38.1984 271.919 32.4425 272.595 26.4615H273.441V39.3254H253.975V38.5363L255.217 38.1984C256.345 37.9161 256.853 37.3509 256.853 35.772V4.00243C256.853 2.42301 256.345 1.85835 255.217 1.57602L253.975 1.23757V0.447278H272.878V13.3129H272.032C271.411 7.27526 270.226 1.57602 265.882 1.57602H261.988V18.5609L263.794 18.5042C266.219 18.3347 267.122 16.2473 267.743 11.3372H268.59V27.0239H267.743C267.235 20.8734 266.276 19.9141 263.737 19.7446L261.988 19.6879V38.1984ZM287.211 35.7714C287.211 37.5204 287.72 37.8583 288.847 38.1417L290.596 38.5369V39.3266H278.972V38.5369L280.439 38.199C281.566 37.9173 282.076 37.3514 282.076 35.7732V1.57602H280.835C277.336 1.57602 275.926 7.27526 275.53 13.3129H274.684V0.447857H294.603V13.3135H293.757C293.361 7.27583 291.951 1.5766 288.453 1.5766H287.211V35.7714ZM318.194 30.3545C318.194 36.3934 315.145 39.5511 310.464 39.5511C306.233 39.5511 303.75 36.1099 303.805 32.3291C303.862 29.3953 306.006 27.9287 307.755 28.1538C308.996 28.3227 310.238 29.2258 310.068 31.2009C309.899 34.0225 306.851 33.9097 306.739 35.6586C306.627 36.7312 308.036 38.3107 309.841 38.3107C313.002 38.3107 313.002 34.3043 313.002 31.2576V3.88962C313.002 2.30961 312.493 1.85835 311.253 1.57602L309.843 1.23757V0.447278H320.96V1.23757L319.718 1.57602C318.59 1.85835 318.195 2.36631 318.195 3.94631L318.194 30.3545ZM331.342 39.6084C324.74 39.6084 321.523 30.693 321.523 19.858C321.523 9.08089 324.627 0.165527 331.342 0.165527C338 0.165527 341.217 9.08089 341.217 19.858C341.217 30.693 338.17 39.6084 331.342 39.6084ZM331.342 1.4632C328.52 1.4632 327.111 3.7201 327.111 19.6335C327.111 36.0532 328.408 38.3674 331.342 38.3674C334.276 38.3674 335.63 36.0532 335.63 19.5196C335.63 3.72068 334.276 1.4632 331.342 1.4632ZM363.562 38.5363L364.803 38.1973C365.932 37.9155 366.44 37.3509 366.44 35.7714V3.94631C366.44 2.08398 365.594 1.40708 363.618 1.40708C361.136 1.40708 360.515 2.53582 360.515 5.75195V30.2417C360.515 36.3361 358.371 39.6084 353.124 39.6084C347.707 39.6084 344.548 36.3361 344.548 30.4112V3.94631C344.548 2.36631 344.152 1.85835 343.024 1.57602L341.782 1.23757V0.447278H353.011V1.23757L351.488 1.57602C350.246 1.85835 349.739 2.30961 349.739 3.88962V30.8058C349.739 36.2794 351.318 37.6899 354.196 37.6899C357.583 37.6899 358.993 35.7714 358.993 30.2411V7.78322C358.993 3.04321 358.936 1.91447 356.906 1.4632L355.834 1.23757V0.447278H374.342C379.138 0.447278 383.596 3.49447 383.596 9.8706C383.596 14.7801 381.283 18.2225 376.599 19.464C381.734 20.4227 381.734 22.8502 382.242 29.338L382.58 34.3037C382.75 37.0685 382.861 37.6905 383.653 37.6905C384.499 37.6905 384.838 35.7726 384.838 33.9097V32.9505H385.797V34.2476C385.797 37.3514 385.12 39.5517 381.904 39.5517C378.744 39.5517 377.277 37.746 377.05 31.2576L376.769 24.0351C376.656 20.5928 375.81 20.0848 374.173 20.0848H371.521V35.772C371.521 37.3514 372.029 37.9728 373.157 38.2546L374.399 38.5369V39.3254H363.564V38.5369L363.562 38.5363ZM371.518 18.9561H373.381C376.54 18.9561 378.12 18.1097 378.12 10.6048C378.12 3.0999 376.033 1.5766 373.775 1.5766H371.518V18.9561ZM386.811 1.4632L386.021 1.23757V0.447278H393.412L403.513 26.0652V7.6137C403.513 3.43835 403.625 1.97116 400.635 1.4632L399.676 1.23757V0.447278H408.027V1.23757L407.238 1.4632C404.812 2.02728 404.982 4.00243 404.982 7.95215V39.326H403.176L390.536 8.23506V32.1602C390.536 36.7307 390.536 38.0295 394.147 38.5363V39.3249H386.02V38.5363L387.037 38.3668C389.124 37.9705 389.069 35.9404 389.069 31.8217V4.84884C388.108 2.87427 387.713 1.80165 386.811 1.4632ZM436.467 38.1984H438.724C443.52 38.1984 444.931 32.4975 445.495 26.4615H446.342V39.3254H417.564V38.5363L418.748 38.3095C421.175 37.8594 421.232 37.1825 420.554 33.7951L419.481 28.7167H412.542L411.807 32.5553C410.96 36.9002 411.412 37.9711 413.105 38.3095L414.29 38.5363V39.3254H406.446V38.5363L407.404 38.2546C408.929 37.8033 409.322 36.9002 410.114 33.0627L416.997 0.221646H418.691L425.913 34.1347C426.648 37.6338 426.928 38.3656 428.961 38.3656C430.709 38.3656 431.331 37.4625 431.331 35.7714V3.94573C431.331 2.36573 430.823 1.85777 429.695 1.57544L428.454 1.23699V0.447278H439.626V1.29369L438.103 1.63214C436.974 1.85777 436.466 2.36573 436.466 3.94573L436.467 38.1984ZM412.767 27.4196H419.2L415.928 11.3945L412.767 27.4196ZM453 36.8429C453 38.3668 451.872 39.4955 450.517 39.4955C449.163 39.4955 448.034 38.3668 448.034 36.8429C448.034 35.3196 449.163 34.1909 450.517 34.1909C451.872 34.1909 453 35.3202 453 36.8429Z" fill="#091011"/>
</g>
<defs>
<clipPath id="clip0_3711_13">
<rect width="453" height="39.7026" fill="white"/>
</clipPath>
</defs>
</svg>
